<?xml version="1.0" standalone="no"?>
<!DOCTYPE svg PUBLIC "-//W3C//DTD SVG 20010904//EN"
 "http://www.w3.org/TR/2001/REC-SVG-20010904/DTD/svg10.dtd">
<svg version="1.0" xmlns="http://www.w3.org/2000/svg"
 width="400.000000pt" height="400.000000pt" viewBox="0 0 400.000000 400.000000"
 preserveAspectRatio="xMidYMid meet">

<g transform="translate(0.000000,400.000000) scale(0.100000,-0.100000)"
fill="#000000" stroke="none">
<path d="M326 3978 c-25 -121 -6 -246 69 -453 4 -11 -17 5 -47 36 -82 86 -110
122 -120 152 -6 15 -13 27 -17 27 -4 0 -13 11 -19 25 -6 14 -16 25 -22 25 -18
0 -11 -38 14 -67 12 -15 50 -73 83 -128 67 -111 127 -201 150 -227 9 -10 13
-18 10 -18 -20 0 -231 155 -296 217 -42 40 -79 73 -83 73 -13 0 -9 -17 5 -29
21 -17 90 -164 130 -276 29 -80 53 -140 69 -172 6 -13 8 -26 4 -30 -4 -4 -9 3
-13 15 -7 27 -18 28 -32 5 -8 -13 -10 -14 -11 -4 0 8 -7 23 -17 33 -20 22 -10
24 12 2 9 -9 19 -13 23 -9 4 4 1 10 -6 12 -6 3 -9 10 -6 15 4 6 2 8 -4 5 -17
-11 -42 4 -42 24 0 10 -4 19 -10 19 -6 0 -6 -9 -1 -22 7 -18 3 -28 -16 -46
-24 -22 -24 -24 -8 -43 21 -22 9 -25 -18 -4 -11 7 -24 12 -30 10 -17 -6 -50
22 -42 34 9 16 35 13 35 -4 0 -8 7 -15 15 -15 8 0 15 5 15 10 0 6 -4 10 -8 10
-5 0 -9 7 -9 15 0 8 6 15 14 15 7 0 13 4 13 10 0 11 -31 1 -43 -14 -6 -8 -10
-7 -14 2 -2 6 -13 12 -23 12 -10 0 -21 8 -23 18 -3 9 -5 -9 -6 -40 -1 -50 1
-57 17 -52 16 5 16 5 -1 -9 -14 -12 -17 -30 -16 -106 1 -71 4 -91 15 -91 8 0
14 4 14 9 0 5 8 7 19 4 15 -4 21 3 29 34 10 37 10 37 12 8 1 -28 2 -29 10 -7
11 25 14 26 41 12 15 -8 22 -6 36 10 13 15 19 17 26 7 5 -7 6 0 2 18 l-6 29
31 -34 c17 -19 38 -48 47 -65 9 -16 19 -32 22 -35 4 -3 13 -20 20 -37 8 -18
17 -33 21 -33 4 0 12 -11 18 -25 9 -19 9 -25 -1 -25 -7 0 -20 17 -29 38 -16
35 -17 36 -17 10 -1 -19 -10 -33 -28 -45 -16 -10 -31 -21 -34 -26 -4 -5 -9 -4
-13 1 -4 6 -16 9 -27 7 -15 -3 -19 0 -15 10 4 10 -1 15 -14 15 -11 0 -30 6
-41 13 -16 9 -23 9 -26 0 -2 -6 -16 -9 -34 -6 -28 4 -29 3 -23 -21 4 -17 2
-26 -6 -26 -16 0 -37 22 -43 46 -2 10 -5 -430 -6 -978 -1 -938 0 -997 17
-1001 14 -4 14 -5 -3 -6 -18 -1 -17 -3 5 -14 14 -7 26 -23 28 -35 2 -12 7 -20
12 -17 5 3 7 12 3 20 -4 12 5 15 43 15 31 0 44 -3 36 -9 -10 -6 -8 -10 10 -14
12 -4 29 -7 36 -7 15 0 16 37 0 42 -9 3 -9 6 0 12 7 4 12 2 12 -6 0 -10 3 -9
11 2 8 12 9 10 4 -9 -5 -16 -4 -21 4 -17 6 4 11 2 11 -4 0 -8 9 -10 26 -6 17
5 23 3 19 -4 -3 -5 1 -10 9 -10 9 0 16 4 16 9 0 6 12 6 32 0 18 -5 41 -6 50
-3 10 3 18 3 18 1 0 -7 -88 -34 -135 -43 -22 -3 -44 -10 -50 -14 -5 -4 -29
-14 -53 -21 -23 -6 -42 -16 -42 -20 0 -8 24 -5 100 11 62 13 210 20 210 9 0
-5 5 -9 11 -9 5 0 7 5 4 10 -3 6 -1 10 4 10 6 0 11 -5 11 -11 0 -11 25 -39 35
-39 3 0 -2 11 -11 25 -16 24 -16 25 7 25 19 0 21 -2 9 -10 -13 -9 -7 -14 13
-11 4 0 7 -3 7 -8 0 -4 11 -6 25 -3 14 2 22 8 19 13 -3 5 14 9 38 8 l43 -1
-59 -18 c-33 -11 -63 -17 -68 -14 -4 3 -8 2 -8 -3 0 -9 -42 -28 -140 -66 -62
-24 -170 -73 -307 -139 l-63 -30 0 -95 c0 -93 0 -94 23 -88 21 6 21 5 2 -6
-11 -7 -22 -13 -23 -15 -2 -1 2 -19 9 -38 10 -29 17 -35 35 -32 18 4 24 -1 29
-24 6 -29 7 -29 26 -11 11 10 17 25 13 34 -3 9 -1 24 5 34 10 16 11 15 10 -7
-3 -37 12 -82 25 -77 6 3 9 11 7 18 -11 41 -11 80 -1 96 10 16 10 15 5 -4 -4
-13 -3 -32 0 -43 7 -22 31 -27 38 -7 4 9 6 9 6 -1 1 -8 -8 -16 -19 -19 -11 -3
-20 -9 -20 -14 0 -4 15 -2 32 6 25 10 32 19 30 34 -2 12 1 21 7 21 6 0 8 -7 5
-15 -4 -9 0 -15 10 -15 9 0 16 4 16 9 0 9 48 26 63 23 4 -1 7 3 7 8 0 6 8 10
18 10 14 0 15 2 2 10 -8 5 -11 12 -7 16 3 4 14 1 23 -6 10 -9 18 -10 22 -3 4
5 24 13 44 17 21 4 38 11 38 16 0 4 10 6 22 3 17 -3 19 -2 9 5 -10 7 -10 11
-1 17 8 5 4 11 -12 20 -30 15 -45 8 -21 -12 10 -8 12 -12 6 -8 -7 3 -13 0 -13
-7 -1 -7 -6 -4 -13 7 -14 24 -67 31 -67 9 0 -8 -6 -14 -14 -14 -8 0 -21 -3
-30 -6 -11 -4 -16 -1 -16 11 0 15 -2 16 -17 4 -15 -12 -16 -12 -8 1 6 11 3 10
-12 -3 -24 -21 -33 -22 -33 -2 0 10 -10 15 -32 15 -41 0 -30 10 24 21 207 42
319 48 460 25 64 -11 101 -26 62 -26 -32 0 -203 -46 -299 -80 -120 -42 -199
-81 -323 -157 -79 -49 -108 -62 -127 -57 -21 5 -25 3 -25 -15 l0 -21 1860 0
c1210 0 1859 4 1855 10 -3 6 -1 10 4 10 6 0 11 -4 11 -9 0 -5 38 -9 85 -9 53
0 83 4 79 10 -3 5 -12 7 -20 4 -8 -3 -11 0 -7 10 3 7 1 14 -5 14 -5 0 -12 -7
-16 -15 -3 -8 -13 -14 -23 -14 -15 1 -15 2 -2 6 9 2 20 13 26 24 8 20 10 20
42 -10 26 -24 36 -29 42 -19 7 10 9 10 9 1 0 -7 5 -13 10 -13 6 0 10 11 10 24
0 14 4 28 10 31 6 4 7 -6 4 -25 -5 -23 -3 -30 10 -30 19 0 22 52 6 94 -6 16
-6 26 0 26 14 0 8 141 -6 147 -7 3 -17 18 -23 34 -5 16 -15 29 -21 29 -6 0 -9
-4 -6 -9 7 -11 -42 -7 -52 4 -4 4 3 5 16 2 16 -4 22 -2 19 7 -3 8 6 11 29 8
31 -4 60 -22 35 -22 -6 0 -11 -4 -11 -10 0 -5 7 -10 15 -10 23 0 18 39 -7 62
l-23 20 23 -5 c12 -3 22 -1 22 4 0 5 -16 9 -35 9 -21 0 -34 -5 -32 -11 1 -6
-10 -12 -25 -13 -19 -1 -28 4 -32 18 -5 19 28 76 44 76 4 0 10 10 14 23 3 13
17 36 32 53 24 27 25 27 19 5 -5 -15 -3 -21 3 -17 7 4 11 119 12 331 l1 325
-27 10 c-32 13 -46 9 -50 -11 -2 -15 -10 -55 -25 -134 -24 -121 -29 -154 -35
-220 -4 -38 -13 -82 -20 -97 -8 -16 -10 -28 -5 -28 11 0 -34 -124 -60 -167
-22 -36 -60 -43 -51 -9 3 12 1 17 -5 13 -6 -4 -14 0 -17 9 -3 8 -10 12 -16 9
-5 -3 -10 1 -10 11 0 13 -3 14 -13 5 -8 -6 -17 -8 -20 -4 -4 3 -7 1 -7 -5 0
-7 -9 -12 -20 -12 -14 0 -18 -5 -14 -17 2 -10 -1 -8 -8 5 -7 15 -18 22 -30 19
-10 -3 -20 -1 -23 4 -3 4 -13 5 -22 2 -11 -5 -14 -3 -8 6 5 8 18 11 39 7 17
-4 40 -8 51 -10 40 -7 57 24 46 84 -1 2 -6 -1 -13 -8 -15 -15 -58 -16 -58 -2
0 6 5 10 10 10 6 0 10 17 10 38 0 24 -3 32 -9 24 -7 -11 -9 -11 -14 0 -3 8 4
20 14 26 15 10 19 9 19 -2 0 -9 8 -14 20 -13 18 1 18 2 3 19 -15 17 -15 19 3
33 20 15 32 19 49 15 5 -1 7 2 3 5 -4 4 -1 20 7 36 18 34 19 51 3 48 -7 -1
-26 1 -41 6 -24 6 -28 11 -22 32 5 22 4 23 -16 12 -19 -10 -21 -9 -16 5 3 8 2
18 -3 21 -6 4 -10 -3 -10 -14 0 -11 7 -24 16 -29 13 -7 13 -10 3 -14 -23 -9
-62 10 -55 27 3 8 1 17 -3 20 -5 2 -11 -5 -15 -18 -4 -14 -9 -18 -13 -11 -5 6
-23 15 -40 19 -18 3 -33 11 -33 16 0 6 -4 8 -9 5 -5 -3 -11 1 -15 9 -3 8 -1
15 5 15 6 0 7 5 4 10 -3 6 -2 10 4 10 10 0 9 45 -2 56 -3 3 -11 3 -17 -1 -9
-6 -9 -10 1 -16 12 -7 12 -9 0 -9 -8 0 -11 -7 -8 -20 6 -25 -4 -32 -20 -14 -9
8 -9 15 -2 19 5 4 7 15 4 25 -3 10 -1 21 5 25 17 11 1 25 -28 24 -18 -1 -21
-3 -9 -6 17 -4 21 -25 4 -24 -4 1 -13 1 -21 1 -7 0 -19 13 -26 30 -7 17 -17
30 -23 30 -6 0 -7 3 -4 7 4 3 15 -1 26 -11 17 -15 20 -15 34 -2 8 8 17 12 21
9 10 -10 7 10 -4 27 -5 8 -10 10 -10 5 0 -19 -44 -12 -63 10 l-18 20 6 -22 c9
-32 -8 -28 -22 5 -6 15 -21 42 -34 60 l-22 33 49 -3 c34 -2 53 1 62 12 10 13
11 12 6 -5 -5 -16 -4 -17 5 -5 15 22 -5 38 -29 22 -36 -22 -120 -13 -120 13 0
8 -7 21 -16 29 -14 15 -14 16 0 16 9 0 16 6 16 14 0 9 -7 13 -20 11 -11 -2
-20 1 -20 7 0 6 -10 8 -24 4 -26 -6 -45 8 -24 18 9 3 8 9 -6 20 -14 12 -23 13
-33 5 -9 -8 -14 -7 -19 4 -11 30 0 52 30 55 18 2 26 0 21 -7 -4 -7 6 -11 27
-12 20 0 27 -3 18 -7 -8 -4 -16 -15 -18 -24 -2 -14 1 -15 27 -5 16 6 28 15 25
19 -3 4 3 8 13 9 18 1 17 2 -26 15 -10 3 -11 7 -1 19 7 8 10 22 6 30 -7 20 20
20 32 -1 8 -15 10 -15 15 0 4 10 1 16 -8 16 -8 0 -17 11 -21 25 -8 32 -24 33
-24 1 0 -16 -7 -26 -22 -30 -34 -9 -40 -7 -35 7 2 6 10 12 18 12 8 0 14 5 14
12 0 7 9 19 20 28 20 16 19 16 -5 11 -14 -3 -28 -6 -32 -6 -5 0 -8 -8 -9 -17
0 -15 -2 -15 -9 2 -7 16 -9 13 -15 -22 -4 -24 -11 -43 -16 -43 -4 0 -3 15 2
32 5 18 6 40 3 50 -4 13 0 16 20 12 14 -2 27 0 30 5 3 5 16 7 29 3 19 -5 20
-3 10 10 -10 12 -9 19 8 37 16 17 18 26 10 34 -8 8 -11 7 -11 -5 0 -20 -58
-70 -71 -62 -5 3 -9 -1 -10 -8 0 -7 -5 0 -11 16 -8 21 -13 25 -19 15 -11 -18
-12 -32 -1 -25 4 2 6 -11 4 -30 -2 -19 -6 -33 -8 -31 -3 3 -12 42 -13 61 -1 6
-8 1 -16 -10 -11 -15 -11 -21 -2 -29 33 -27 38 -41 24 -73 l-12 -30 -12 24
c-6 14 -7 26 -2 30 5 3 3 17 -4 32 -19 41 -10 81 20 93 31 11 26 19 -19 28
-27 6 -33 12 -32 32 1 13 -4 27 -10 31 -6 5 -1 8 12 8 20 0 23 -4 20 -27 -2
-19 1 -27 10 -25 7 1 28 -5 45 -14 62 -33 66 -34 73 -22 4 7 3 8 -4 4 -20 -12
-13 13 8 34 11 11 20 27 20 35 0 8 7 15 15 15 8 0 15 7 15 17 0 15 -1 15 -19
-1 -10 -9 -25 -14 -35 -10 -9 3 -16 1 -16 -6 0 -6 5 -8 10 -5 6 3 10 -3 10
-13 0 -15 -5 -19 -21 -15 -11 3 -18 11 -15 18 7 18 -45 30 -55 13 -7 -10 -9
-9 -9 3 0 12 -8 14 -30 11 -22 -3 -30 0 -30 11 0 8 -10 21 -21 29 -21 13 -21
15 -5 46 9 18 21 32 26 32 16 0 11 -19 -11 -41 -11 -11 -18 -24 -14 -27 4 -4
18 7 31 23 18 23 24 26 24 13 0 -10 -4 -18 -10 -18 -5 0 -10 -9 -10 -19 0 -25
20 -38 21 -14 0 10 3 13 6 6 2 -7 9 -13 15 -13 9 0 6 33 -8 83 -4 12 0 17 14
17 11 0 22 5 24 12 2 6 10 -3 17 -21 15 -35 13 -41 -16 -44 -15 -1 -18 -7 -15
-29 2 -15 8 -26 12 -23 5 3 6 14 3 25 -3 11 0 20 6 20 6 0 11 -8 11 -17 1 -16
2 -16 16 2 8 11 12 26 8 35 -16 39 -16 49 3 45 10 -2 22 -4 26 -4 5 -1 5 -5 2
-11 -3 -5 0 -10 7 -10 9 0 9 -3 -2 -10 -12 -8 -12 -10 5 -11 17 -1 16 -2 -5
-9 -22 -6 -23 -8 -7 -15 10 -4 30 -1 48 8 l31 14 -26 7 c-33 8 -36 43 -3 49
l22 4 -22 2 c-13 0 -23 6 -23 11 0 6 -11 10 -24 10 -20 0 -36 16 -36 36 0 7
25 0 31 -10 4 -4 9 -3 13 2 3 6 -3 13 -13 17 -13 4 -18 12 -14 22 8 20 -22 43
-47 36 -11 -3 -20 0 -20 6 0 6 4 11 8 11 10 0 8 67 -2 77 -12 12 -6 22 9 17 8
-4 15 -1 15 5 0 6 -7 11 -15 11 -8 0 -15 5 -15 10 0 6 7 10 15 10 8 0 15 4 15
9 0 5 -9 7 -19 4 -23 -6 -32 -34 -19 -58 7 -11 7 -20 0 -27 -7 -7 -12 0 -17
21 -4 17 -11 31 -15 31 -5 0 -2 -20 8 -45 11 -30 19 -41 25 -32 6 9 7 8 4 -3
-2 -8 -12 -14 -21 -14 -16 2 -16 0 -2 -15 20 -22 21 -42 2 -35 -8 3 -16 -4
-21 -18 -6 -19 -8 -20 -12 -5 -2 9 -9 17 -14 17 -5 0 -9 4 -9 10 0 5 7 7 15 4
11 -5 15 1 15 23 0 37 -36 43 -52 8 -10 -22 -38 -25 -38 -3 0 5 5 6 10 3 6 -3
10 4 10 17 0 13 -4 18 -8 12 -4 -6 -16 -14 -27 -18 -14 -6 -16 -10 -7 -13 10
-4 8 -9 -5 -19 -30 -22 -50 -17 -25 7 12 11 20 24 18 28 -3 4 -6 29 -7 57 -1
27 -7 52 -13 56 -6 5 -2 8 9 8 11 0 28 9 38 20 17 20 17 21 -20 18 l-38 -3 0
60 c0 34 5 66 13 73 6 7 12 20 12 28 0 14 12 18 39 14 12 -1 12 1 3 13 -10 11
-9 17 3 27 13 11 14 10 9 -4 -3 -9 -1 -16 6 -16 7 0 9 -8 5 -19 -5 -16 -1 -19
15 -18 22 1 27 13 8 20 -7 3 3 3 22 0 19 -3 40 -10 45 -15 6 -6 5 -8 -4 -6 -8
2 -17 -5 -19 -15 -3 -16 -1 -17 19 -7 20 11 21 10 17 -8 -7 -26 39 -51 48 -27
4 8 10 12 15 9 5 -3 9 -1 9 5 0 18 -20 23 -26 6 -5 -12 -10 -13 -20 -4 -8 6
-11 16 -8 21 4 6 0 14 -7 19 -24 15 20 11 49 -5 15 -7 44 -22 66 -32 21 -11
40 -25 43 -31 3 -7 10 -13 17 -13 6 0 33 -20 60 -45 27 -25 52 -45 56 -45 8 0
90 -60 113 -83 10 -10 16 -21 14 -25 -2 -4 4 -15 15 -24 10 -10 18 -14 18 -9
0 6 -5 13 -10 16 -5 3 -10 11 -10 16 0 11 62 -20 68 -33 2 -5 9 -8 15 -8 19 0
46 -31 41 -48 -5 -14 -3 -14 6 1 11 17 13 17 46 -3 21 -13 41 -19 54 -15 21 7
18 25 -4 25 -19 0 -109 41 -103 46 2 3 28 -4 57 -15 29 -11 57 -18 62 -15 4 3
8 1 8 -4 0 -5 6 -9 13 -10 6 0 21 -2 32 -5 11 -2 56 -8 100 -12 44 -4 92 -9
108 -11 l27 -3 0 855 c-1 668 -3 853 -13 847 -9 -5 -9 -4 0 8 17 21 17 275 0
282 -7 3 -413 5 -902 6 l-890 1 28 -23 c25 -21 39 -45 18 -32 -5 3 -12 1 -16
-5 -3 -5 -3 -10 2 -10 4 0 14 -4 21 -9 10 -6 6 -20 -18 -61 -17 -29 -38 -59
-46 -67 -8 -8 -12 -23 -9 -33 3 -11 0 -20 -10 -24 -27 -10 -17 -29 13 -21 22
5 25 4 15 -6 -18 -18 -16 -32 3 -25 10 4 25 -1 35 -10 20 -18 26 -40 9 -29 -5
3 -8 0 -5 -7 3 -7 18 -20 34 -30 40 -22 87 -89 112 -158 16 -45 25 -57 38 -53
36 9 80 -86 111 -242 6 -33 15 -75 20 -93 7 -27 6 -33 -5 -28 -8 3 -17 1 -20
-5 -4 -5 -11 -7 -16 -4 -5 4 -9 2 -9 -4 0 -6 12 -8 30 -4 29 5 30 4 31 -28 1
-89 11 -185 20 -194 5 -5 9 -24 9 -42 0 -26 -4 -33 -19 -33 -11 0 -23 -5 -27
-12 -4 -7 -3 -8 5 -4 6 4 14 1 17 -8 5 -12 11 -9 34 14 25 25 28 36 28 95 0
63 9 95 19 68 3 -7 10 -13 16 -13 7 0 22 -11 35 -24 24 -25 30 -42 10 -30 -7
4 -8 3 -4 -5 4 -6 1 -14 -7 -17 -9 -3 -18 -16 -21 -30 -6 -22 -27 -51 -63 -89
-13 -14 -6 -55 9 -55 5 0 8 -6 5 -12 -2 -7 0 -21 5 -31 6 -12 5 -23 -3 -33 -9
-11 -9 -14 1 -14 8 0 10 -8 7 -22 -17 -70 -19 -101 -8 -93 15 9 7 -45 -17
-120 -8 -27 -15 -67 -15 -87 0 -21 -3 -38 -6 -38 -11 0 -31 23 -31 35 0 5 5 3
10 -5 7 -11 8 -8 6 13 -1 15 -6 30 -9 34 -13 12 -7 25 8 20 18 -7 32 13 16 22
-6 4 -9 15 -5 24 3 9 10 14 16 11 5 -3 4 4 -4 15 -11 18 -11 23 2 31 8 5 12
12 8 15 -3 4 -18 -1 -32 -10 -25 -16 -26 -16 -27 1 0 13 -5 8 -15 -14 -8 -19
-19 -30 -25 -26 -8 4 -7 9 1 14 8 5 10 15 6 26 -6 16 -8 16 -16 4 -7 -10 -10
-11 -10 -2 0 6 -8 12 -17 12 -14 0 -15 -2 -5 -9 11 -7 11 -9 -2 -14 -10 -4
-16 -1 -16 8 0 8 -7 15 -15 15 -8 0 -15 -7 -15 -16 0 -14 -2 -14 -16 -3 -14
12 -14 14 3 27 17 14 17 14 -5 9 -12 -3 -20 -2 -17 3 2 4 21 10 42 13 21 3 46
8 55 12 13 5 15 2 11 -16 -4 -14 -2 -20 4 -16 6 4 14 -1 17 -10 6 -14 8 -14
21 3 18 24 19 34 2 34 -19 0 -13 48 8 64 17 12 21 12 32 -3 10 -14 11 -13 6 6
-3 15 0 25 10 29 9 3 13 14 10 27 -4 18 -3 19 7 7 9 -12 10 -10 4 10 -12 42
-41 53 -46 18 -2 -17 -9 -22 -23 -20 -26 5 -26 4 -16 40 5 17 6 34 1 37 -9 6
-22 -31 -21 -60 1 -11 -3 -27 -9 -35 -9 -13 -12 -13 -24 3 -11 15 -22 17 -47
12 -23 -5 -30 -4 -24 5 5 8 1 11 -11 8 -11 -2 -20 -13 -22 -25 -2 -13 -14 -26
-30 -32 -19 -6 -21 -10 -9 -10 17 -1 17 -2 2 -17 -10 -10 -13 -19 -7 -23 7 -4
7 -20 2 -41 -4 -19 -9 -33 -10 -30 -3 12 -12 87 -12 108 0 16 -6 22 -23 22
-13 0 -27 5 -30 10 -3 6 -1 10 4 10 6 0 11 5 11 11 0 8 -5 7 -16 -2 -11 -9
-14 -22 -10 -41 3 -15 1 -28 -4 -28 -6 0 -10 9 -10 19 0 11 -4 23 -10 26 -23
14 -2 106 21 92 2 -1 -2 4 -11 11 -12 10 -9 11 19 6 28 -6 32 -5 25 7 -16 26
-15 49 4 49 14 0 15 2 2 10 -12 8 -12 11 2 27 9 10 19 35 23 56 7 34 35 54 35
25 0 -9 4 -8 10 2 5 8 10 20 10 25 0 6 -5 3 -10 -5 -16 -25 -13 12 6 55 8 20
11 34 6 31 -5 -3 -8 29 -7 77 3 104 1 96 28 107 17 7 18 9 5 9 -20 1 -24 16
-7 26 6 4 8 13 5 21 -3 7 -1 16 4 19 17 10 11 22 -12 28 -37 10 -63 -16 -81
-82 -13 -45 -24 -65 -44 -78 -16 -10 -30 -21 -33 -24 -9 -12 -80 -28 -80 -18
0 5 -4 9 -10 9 -5 0 -7 -7 -4 -15 4 -10 0 -15 -12 -16 -11 0 -34 -2 -52 -5
-18 -2 -42 0 -52 6 -17 9 -75 18 -127 19 -31 1 -32 47 -2 56 11 4 18 9 15 12
-6 7 49 61 119 118 64 51 75 62 69 67 -2 3 7 29 21 59 14 30 25 70 25 89 0 30
6 39 39 59 22 14 48 42 60 65 24 48 12 59 -25 23 -38 -38 -77 -51 -115 -38
-45 15 -76 -3 -108 -63 -29 -56 -56 -74 -45 -32 4 16 2 26 -5 26 -6 0 -11 7
-11 15 0 8 -9 23 -20 32 -11 10 -20 23 -20 29 0 7 -11 15 -24 18 -14 3 -28 15
-31 26 -3 11 -11 20 -16 20 -5 0 -8 3 -8 8 3 20 -2 32 -15 32 -7 0 -19 7 -26
15 -7 8 -16 13 -20 10 -5 -3 -11 -1 -14 4 -6 10 -123 25 -233 30 -33 1 -28 13
17 41 22 14 40 27 40 31 0 3 18 12 40 19 41 13 88 8 215 -25 94 -24 107 -26
100 -15 -3 5 -8 19 -10 30 -2 10 -10 34 -18 52 -20 45 -41 143 -33 156 3 5 0
14 -7 20 -7 6 -290 10 -759 11 l-747 2 -5 -23z m3490 -23 c-21 -16 -32 -13
-21 4 3 6 14 11 23 11 15 -1 15 -2 -2 -15z m141 -7 c-3 -8 -6 -5 -6 6 -1 11 2
17 5 13 3 -3 4 -12 1 -19z m-182 -8 c-3 -5 -11 -10 -16 -10 -6 0 -7 5 -4 10 3
6 11 10 16 10 6 0 7 -4 4 -10z m-40 -20 c-3 -5 -12 -10 -18 -10 -7 0 -6 4 3
10 19 12 23 12 15 0z m58 -16 c-4 -12 -8 -13 -14 -3 -9 15 -2 32 11 24 5 -3 6
-13 3 -21z m177 14 c0 -4 -4 -8 -9 -8 -6 0 -12 4 -15 8 -3 5 1 9 9 9 8 0 15
-4 15 -9z m-247 -30 c16 1 37 -32 37 -59 0 -15 -67 -10 -81 7 -8 10 -23 14
-41 12 -15 -3 -28 -1 -28 4 0 4 7 8 15 8 8 0 23 9 32 20 11 12 24 18 33 14 8
-4 23 -6 33 -6z m-2961 -40 c-7 -7 -12 -8 -12 -2 0 14 12 26 19 19 2 -3 -1
-11 -7 -17z m2748 -22 c0 -3 -4 -8 -10 -11 -5 -3 -10 -1 -10 4 0 6 5 11 10 11
6 0 10 -2 10 -4z m80 -11 c-7 -8 -20 -15 -29 -15 -13 1 -13 3 3 15 26 19 42
19 26 0z m-20 -46 c0 -5 8 -8 18 -7 34 3 53 -2 47 -12 -4 -6 -12 -7 -18 -3 -6
4 -28 6 -47 5 -23 -2 -31 0 -22 6 11 7 11 10 -2 15 -10 4 -16 1 -16 -8 0 -10
-10 -15 -31 -15 -17 0 -28 4 -24 10 3 6 15 10 25 10 10 0 21 4 24 9 7 11 46 2
46 -10z m148 -24 c-3 -3 -9 2 -12 12 -6 14 -5 15 5 6 7 -7 10 -15 7 -18z m-41
-1 c-3 -3 -12 -4 -19 -1 -8 3 -5 6 6 6 11 1 17 -2 13 -5z m93 -4 c0 -5 -5 -10
-11 -10 -5 0 -7 5 -4 10 3 6 8 10 11 10 2 0 4 -4 4 -10z m-2095 -349 c-6 -11
-45 -10 -45 1 0 4 12 8 26 8 14 0 23 -4 19 -9z m54 -71 c0 -8 -7 0 -15 18 -17
38 -22 39 -34 10 -8 -22 -9 -22 -9 -2 -1 11 4 25 11 32 9 9 16 6 30 -16 10
-15 18 -34 17 -42z m2236 4 c-41 -31 -55 -36 -55 -18 0 10 3 14 6 11 4 -3 16
0 28 8 27 20 47 19 21 -1z m-2246 -28 c12 -18 21 -40 21 -47 0 -12 -2 -12 -9
0 -5 7 -11 9 -13 5 -3 -5 -3 -3 -1 4 5 22 -7 34 -23 21 -16 -13 -19 -33 -4
-24 6 3 10 -1 10 -11 0 -13 -3 -14 -15 -4 -14 11 -13 32 1 78 5 18 10 15 33
-22z m2176 -5 c-3 -6 -11 -8 -17 -5 -6 4 -5 9 3 15 16 10 23 4 14 -10z m92 3
c-3 -3 -12 -4 -19 -1 -8 3 -5 6 6 6 11 1 17 -2 13 -5z m-2225 -50 c-5 -41 -15
-38 -16 6 -1 16 4 30 9 30 7 0 9 -15 7 -36z m2083 26 c-3 -5 -12 -10 -18 -10
-7 0 -6 4 3 10 19 12 23 12 15 0z m118 -7 c-7 -2 -21 -2 -30 0 -10 3 -4 5 12
5 17 0 24 -2 18 -5z m-104 -19 c2 -2 -12 -4 -32 -4 -20 0 -37 4 -37 10 0 8 58
3 69 -6z m-79 -4 c0 -5 -7 -7 -15 -4 -8 4 -15 8 -15 10 0 2 7 4 15 4 8 0 15
-4 15 -10z m188 3 c-10 -2 -26 -2 -35 0 -10 3 -2 5 17 5 19 0 27 -2 18 -5z
m-2242 -43 c-3 -14 -3 -19 0 -12 3 6 10 12 15 12 5 0 4 -9 -3 -19 -7 -11 -16
-17 -20 -15 -4 3 -8 -2 -8 -10 0 -9 -7 -16 -15 -16 -19 0 -19 9 2 32 9 10 13
21 9 25 -4 5 -12 0 -17 -10 -6 -9 -15 -17 -21 -17 -7 0 -7 4 1 14 6 7 9 20 6
27 -4 10 4 14 25 14 28 1 31 -2 26 -25z m1914 -4 c0 -3 -4 -8 -10 -11 -5 -3
-10 -1 -10 4 0 6 5 11 10 11 6 0 10 -2 10 -4z m-653 -62 c18 -19 36 -52 40
-72 4 -20 8 -121 8 -223 l0 -186 -30 -48 c-16 -26 -39 -53 -50 -59 -11 -6 -23
-16 -28 -23 -4 -7 -24 -15 -45 -19 -20 -4 -41 -9 -47 -13 -25 -15 -35 -8 -35
25 0 25 4 34 18 35 14 0 14 2 -3 9 -31 13 -32 13 -29 -34 2 -39 0 -44 -17 -43
-14 1 -17 6 -13 22 4 13 3 17 -4 10 -5 -5 -12 -19 -14 -29 -5 -29 -24 -15 -20
14 4 29 77 104 110 112 24 7 25 6 16 -16 -3 -9 -13 -16 -21 -16 -8 0 -11 5 -8
10 3 6 1 10 -5 10 -7 0 -10 -6 -7 -12 2 -8 23 -13 52 -13 38 -1 43 1 26 9 -29
13 -26 33 7 41 34 8 116 95 119 126 10 116 9 230 -2 266 -15 48 -82 123 -111
123 -10 -1 -41 -16 -69 -35 -31 -22 -52 -30 -56 -23 -4 6 -10 -3 -13 -20 -6
-23 -11 -29 -26 -25 -18 5 -18 6 1 26 11 12 17 27 15 34 -3 7 -1 13 5 13 6 0
8 4 5 9 -7 11 69 49 109 54 57 8 89 -2 122 -39z m-2802 16 c3 -5 1 -10 -4 -10
-6 0 -11 5 -11 10 0 6 2 10 4 10 3 0 8 -4 11 -10z m1488 -9 c3 -14 -2 -21 -20
-26 -33 -8 -36 -4 -17 23 19 27 30 28 37 3z m-1591 -43 c-8 -8 -9 -4 -5 13 4
13 8 18 11 10 2 -7 -1 -18 -6 -23z m197 -4 c6 4 23 -7 39 -25 25 -30 46 -69
37 -69 -8 0 -105 97 -105 106 0 5 4 3 9 -5 5 -7 14 -10 20 -7z m3708 -20 c-3
-3 -12 -4 -19 -1 -8 3 -5 6 6 6 11 1 17 -2 13 -5z m-57 -14 c0 -5 -8 -10 -17
-10 -15 0 -16 2 -3 10 19 12 20 12 20 0z m-3880 -40 c0 -5 -2 -10 -4 -10 -3 0
-8 5 -11 10 -3 6 -1 10 4 10 6 0 11 -4 11 -10z m3703 -7 c-7 -2 -19 -2 -25 0
-7 3 -2 5 12 5 14 0 19 -2 13 -5z m-70 -10 c-18 -2 -33 -8 -33 -13 0 -7 -20
-7 -40 0 -12 4 48 18 75 17 30 0 30 0 -2 -4z m157 3 c0 -2 -9 -6 -20 -9 -11
-3 -20 -1 -20 4 0 5 9 9 20 9 11 0 20 -2 20 -4z m-125 -36 c3 -5 -4 -6 -15 -3
-11 3 -22 9 -25 13 -3 5 4 6 15 3 11 -3 22 -9 25 -13z m-154 -80 c20 -11 26
-30 8 -30 -5 0 -7 5 -3 11 4 8 -1 9 -16 4 -15 -5 -20 -4 -16 4 5 7 1 9 -8 5
-9 -3 -16 -1 -16 5 0 14 25 14 51 1z m259 -30 c0 -5 -2 -10 -4 -10 -3 0 -8 5
-11 10 -3 6 -1 10 4 10 6 0 11 -4 11 -10z m-133 -52 c-3 -7 -5 -2 -5 12 0 14
2 19 5 13 2 -7 2 -19 0 -25z m113 22 c0 -5 -2 -10 -4 -10 -3 0 -8 5 -11 10 -3
6 -1 10 4 10 6 0 11 -4 11 -10z m-3470 -45 c0 -8 -2 -15 -4 -15 -2 0 -6 7 -10
15 -3 8 -1 15 4 15 6 0 10 -7 10 -15z m-140 -17 c0 -4 -4 -8 -9 -8 -6 0 -12 4
-15 8 -3 5 1 9 9 9 8 0 15 -4 15 -9z m3615 -8 c3 -5 2 -10 -4 -10 -5 0 -13 5
-16 10 -3 6 -2 10 4 10 5 0 13 -4 16 -10z m-3395 -20 c11 -21 5 -60 -9 -60 -4
0 -7 18 -8 40 -2 45 1 49 17 20z m-310 -4 c0 -2 -7 -7 -16 -10 -8 -3 -12 -2
-9 4 6 10 25 14 25 6z m270 -46 c0 -5 -5 -10 -11 -10 -5 0 -7 5 -4 10 3 6 8
10 11 10 2 0 4 -4 4 -10z m30 -40 c0 -5 -4 -10 -10 -10 -5 0 -10 5 -10 10 0 6
5 10 10 10 6 0 10 -4 10 -10z m3088 -50 c12 0 13 -3 5 -11 -8 -8 -17 -7 -35 6
-16 12 -18 16 -5 11 10 -3 26 -6 35 -6z m99 -16 c-3 -3 -12 -4 -19 -1 -8 3 -5
6 6 6 11 1 17 -2 13 -5z m-988 -11 c-2 -27 -15 -42 -29 -33 -10 7 -11 10 -2
10 6 0 12 7 12 15 0 8 5 15 10 15 6 0 10 -3 9 -7z m-173 -29 c18 5 25 4 19 -2
-5 -5 -22 -12 -37 -16 -24 -6 -28 -3 -28 16 0 17 3 19 9 9 6 -9 18 -12 37 -7z
m128 -10 c8 -20 -20 -54 -43 -54 -14 0 -14 2 -1 10 8 5 11 12 7 16 -4 4 -13 2
-19 -4 -7 -7 -20 -12 -31 -12 -10 0 -15 -4 -12 -10 3 -5 -2 -10 -12 -10 -10 0
-25 -5 -33 -11 -12 -8 -8 -9 15 -6 17 2 23 2 15 -1 -12 -4 -11 -6 5 -12 16 -6
12 -9 -20 -15 -65 -11 -67 -12 -55 -35 8 -16 8 -28 -4 -50 -8 -16 -12 -38 -9
-49 2 -10 -3 -34 -13 -52 -10 -19 -18 -41 -18 -49 -1 -9 -9 -14 -21 -12 l-20
4 20 -16 c17 -13 18 -17 5 -25 -16 -11 -22 -4 -35 37 -6 21 -4 23 13 18 21 -7
39 18 22 29 -6 4 -10 26 -10 50 0 34 -5 47 -20 55 -14 7 -20 7 -20 0 0 -5 7
-10 15 -10 8 0 15 -4 15 -8 0 -4 -9 -8 -20 -8 -11 0 -20 6 -20 13 0 7 -5 13
-11 13 -6 0 -8 8 -4 19 4 13 0 23 -12 30 -17 10 -17 10 0 11 9 0 17 -4 17 -10
0 -5 7 -10 15 -10 8 0 15 -5 15 -12 0 -6 3 -9 6 -5 9 9 -6 48 -17 42 -5 -4 -9
-1 -9 4 0 6 7 11 16 11 11 0 15 6 11 18 -2 9 -6 23 -8 31 -2 7 1 15 7 18 17 6
29 -68 12 -78 -10 -7 -9 -9 5 -9 10 0 17 -8 17 -20 0 -11 5 -20 11 -20 5 0 8
4 4 9 -3 5 -1 12 5 16 5 3 10 -1 10 -9 0 -8 5 -18 11 -22 8 -4 9 1 4 16 -11
35 -13 70 -4 70 5 0 6 8 3 18 -5 16 -5 16 6 0 7 -12 22 -18 43 -17 24 1 26 3
10 6 -13 2 -23 8 -23 12 0 12 58 51 77 51 15 0 16 2 3 10 -16 10 -8 13 28 10
14 -1 22 4 22 14 0 21 26 21 34 0z m-149 -32 c-11 -3 -25 -12 -32 -21 -7 -9
-12 -11 -13 -6 0 25 35 48 55 36 6 -3 1 -7 -10 -9z m943 -30 c6 -18 -15 -14
-22 4 -4 10 -1 14 6 12 6 -2 14 -10 16 -16z m342 8 c0 -5 -2 -10 -4 -10 -3 0
-8 5 -11 10 -3 6 -1 10 4 10 6 0 11 -4 11 -10z m-790 -9 c0 -5 -10 -12 -22
-16 -14 -4 -18 -8 -10 -12 6 -2 12 -9 12 -14 0 -14 -28 -11 -33 4 -3 6 -6 0
-6 -15 -1 -16 -5 -28 -11 -28 -25 0 -2 58 31 76 28 16 39 17 39 5z m-2535 -11
c3 -5 1 -10 -4 -10 -6 0 -11 5 -11 10 0 6 2 10 4 10 3 0 8 -4 11 -10z m1865
-11 c0 -5 -7 -9 -15 -9 -8 0 -15 7 -15 15 0 9 6 12 15 9 8 -4 15 -10 15 -15z
m280 11 c0 -13 -11 -13 -30 0 -12 8 -11 10 8 10 12 0 22 -4 22 -10z m461 -21
c-16 -6 -28 -6 -35 1 -7 7 1 10 25 9 32 0 33 -1 10 -10z m-157 -23 c-3 -9 -10
-13 -16 -10 -5 3 -4 12 3 20 15 18 22 13 13 -10z m386 -14 c0 -15 -2 -15 -10
-2 -13 20 -13 33 0 25 6 -3 10 -14 10 -23z m-965 8 c3 -5 2 -10 -4 -10 -5 0
-13 5 -16 10 -3 6 -2 10 4 10 5 0 13 -4 16 -10z m1280 -60 c-3 -5 -12 -10 -18
-10 -7 0 -6 4 3 10 19 12 23 12 15 0z m-1031 -15 c-4 -8 -11 -12 -16 -9 -6 4
-5 10 3 15 19 12 19 11 13 -6z m-85 -37 c-4 -31 2 -46 24 -57 22 -11 22 -11
-3 -5 -34 9 -34 9 -36 61 -1 34 1 42 8 30 5 -9 8 -23 7 -29z m51 32 c0 -5 -7
-7 -15 -4 -8 4 -15 8 -15 10 0 2 7 4 15 4 8 0 15 -4 15 -10z m121 -26 c-5 -16
-10 -23 -10 -16 -1 6 -8 12 -17 12 -11 0 -14 -6 -10 -22 6 -22 6 -22 -6 1 -10
20 -9 25 6 37 11 7 23 11 27 8 5 -3 9 0 9 7 0 7 2 10 5 8 2 -3 0 -18 -4 -35z
m-91 -1 c2 -2 -6 -6 -18 -10 -12 -3 -22 -12 -22 -19 0 -19 -26 -18 -34 1 -3 9
0 15 10 15 10 0 14 6 10 15 -4 12 0 14 22 9 15 -4 29 -9 32 -11z m24 1 c3 -8
2 -12 -4 -9 -6 3 -10 10 -10 16 0 14 7 11 14 -7z m206 -5 c0 -11 -4 -18 -10
-14 -5 3 -7 12 -3 20 7 21 13 19 13 -6z m-420 -55 c0 -13 5 -24 12 -24 6 0 9
-3 6 -6 -13 -13 -45 16 -42 38 3 31 3 30 14 23 6 -3 10 -17 10 -31z m200 11
c0 -9 -6 -12 -15 -9 -8 4 -12 10 -9 15 8 14 24 10 24 -6z m21 -8 c-10 -9 -11
-8 -5 6 3 10 9 15 12 12 3 -3 0 -11 -7 -18z m-131 -17 c0 -5 -4 -10 -10 -10
-5 0 -10 5 -10 10 0 6 5 10 10 10 6 0 10 -4 10 -10z m183 4 c7 -8 -3 -34 -13
-34 -4 0 -10 9 -13 20 -5 19 12 28 26 14z m157 -5 c0 -5 4 -8 9 -4 5 3 12 1
16 -5 3 -6 0 -13 -8 -16 -11 -4 -14 -19 -12 -57 1 -29 0 -58 -3 -64 -8 -25
-22 -13 -22 20 0 64 -1 77 -10 77 -4 0 -3 14 3 30 11 29 27 41 27 19z m125 -5
c20 -15 20 -16 -4 -12 -14 2 -26 9 -29 16 -5 16 9 15 33 -4z m-331 -9 c6 -16
-3 -19 -29 -9 -13 5 -14 8 -3 15 19 12 25 11 32 -6z m901 -5 c3 -5 1 -10 -4
-10 -6 0 -11 5 -11 10 0 6 2 10 4 10 3 0 8 -4 11 -10z m-948 -36 c11 -25 11
-25 -5 -12 -9 8 -26 18 -37 22 -15 6 -17 9 -6 16 20 12 34 4 48 -26z m-67 6
c20 -20 17 -23 -22 -23 -10 0 -14 -5 -10 -15 3 -10 1 -13 -6 -8 -14 8 -15 5
-6 -18 3 -9 9 -14 13 -12 4 3 7 -4 7 -14 0 -14 -3 -16 -13 -8 -7 6 -13 17 -13
24 0 8 -6 11 -15 8 -8 -4 -15 -1 -15 6 0 6 5 8 12 4 8 -5 9 0 5 16 -4 16 -1
23 14 27 10 3 19 12 19 19 0 19 6 18 30 -6z m125 0 c-3 -5 -16 -10 -28 -9 -21
0 -21 1 -2 9 28 12 37 12 30 0z m-2113 -14 c5 3 4 -3 -3 -15 -15 -22 -31 -9
-21 18 4 10 7 11 10 3 2 -7 8 -9 14 -6z m2138 -6 c-8 -5 -12 -10 -7 -11 4 -1
12 -3 17 -4 6 -1 14 -3 19 -4 12 -1 10 -81 -1 -81 -4 0 -8 16 -8 35 0 23 -5
35 -14 35 -15 0 -28 24 -19 34 4 3 11 6 17 6 6 0 4 -5 -4 -10z m-106 -15 c-4
-8 -8 -15 -10 -15 -2 0 -4 7 -4 15 0 8 4 15 10 15 5 0 7 -7 4 -15z m356 -15
c0 -5 -4 -10 -10 -10 -5 0 -10 5 -10 10 0 6 5 10 10 10 6 0 10 -4 10 -10z
m-1320 -4 c0 -3 -4 -8 -10 -11 -5 -3 -10 -1 -10 4 0 6 5 11 10 11 6 0 10 -2
10 -4z m1069 -46 c0 -10 -2 -11 -6 -2 -2 6 -8 10 -13 7 -4 -3 -6 4 -3 16 4 16
8 17 14 7 5 -7 8 -20 8 -28z m-224 -1 c-4 -5 -2 -9 4 -9 6 0 8 -7 5 -15 -9
-22 -24 -8 -24 21 0 15 4 23 10 19 6 -4 8 -11 5 -16z m158 7 c4 -10 0 -12 -15
-8 -18 4 -19 2 -13 -19 4 -13 13 -27 19 -31 15 -10 2 -20 -17 -12 -22 8 -37
56 -23 71 15 16 43 16 49 -1z m-922 -19 c-10 -9 -11 -8 -5 6 3 10 9 15 12 12
3 -3 0 -11 -7 -18z m1409 3 c0 -5 -4 -10 -10 -10 -5 0 -10 -7 -10 -17 0 -9 -3
-14 -6 -10 -8 8 5 47 17 47 5 0 9 -4 9 -10z m-420 -35 c0 -8 -4 -15 -10 -15
-5 0 -10 7 -10 15 0 8 5 15 10 15 6 0 10 -7 10 -15z m181 8 c-10 -4 -10 -7 -1
-13 8 -5 3 -9 -14 -12 -14 -3 -26 -2 -26 3 0 9 31 29 45 28 6 0 4 -3 -4 -6z
m-2136 -66 c19 -4 19 -5 -1 -6 -12 0 -27 -8 -34 -16 -17 -20 -33 -19 -54 4
-13 14 -14 24 -6 46 l10 27 33 -25 c18 -13 41 -27 52 -30z m1772 13 c2 -13 -2
-18 -11 -14 -8 3 -13 13 -11 22 2 9 4 19 4 21 2 10 15 -11 18 -29z m533 18 c0
-7 -14 -14 -33 -15 l-32 -2 25 13 c32 18 40 19 40 4z m25 2 c-3 -5 -1 -10 4
-10 6 0 11 -21 11 -50 0 -27 -4 -50 -10 -50 -5 0 -10 -7 -10 -16 0 -9 -9 -18
-20 -21 -11 -3 -20 -12 -20 -20 0 -8 -5 -11 -11 -8 -6 4 -9 0 -7 -10 2 -10 -4
-22 -13 -28 -14 -8 -23 -4 -48 19 -34 32 -44 59 -11 29 16 -15 26 -17 47 -9
32 11 43 35 14 29 -11 -2 -23 0 -26 6 -4 5 -2 9 4 9 6 0 13 11 17 25 3 14 10
25 16 25 5 0 7 -3 4 -8 -2 -4 3 -16 11 -27 15 -19 15 -19 11 7 -3 15 -1 33 4
40 7 10 8 8 4 -4 -3 -10 -1 -18 3 -18 5 0 7 -10 5 -22 -4 -21 -3 -20 6 2 7 14
8 45 5 72 -5 33 -3 48 5 48 6 0 8 -4 5 -10z m156 -2 c1 -7 1 -17 0 -22 -1 -5
2 -21 7 -36 7 -20 7 -27 -3 -27 -7 0 -10 8 -8 18 6 21 -24 20 -38 -2 -7 -11
-9 -11 -9 4 0 9 5 17 10 17 16 0 12 22 -7 36 -17 13 -17 14 0 8 9 -3 17 -1 17
5 0 15 30 14 31 -1z m-671 -12 c-7 -7 -14 -6 -21 1 -9 9 -7 12 9 10 14 -1 18
-5 12 -11z m121 -16 c5 0 9 7 9 15 0 9 9 15 25 15 28 0 34 -24 9 -34 -12 -4
-15 -2 -10 9 3 8 1 15 -3 15 -11 0 -23 -29 -16 -40 3 -4 14 -6 25 -3 11 3 20
0 20 -6 0 -6 -8 -11 -17 -11 -12 0 -14 -3 -7 -8 15 -10 30 -77 15 -68 -6 4
-11 16 -11 27 0 11 -12 32 -26 47 -26 27 -26 27 -19 3 6 -21 5 -22 -8 -10 -11
10 -12 18 -5 27 6 7 8 15 4 19 -3 4 -12 -2 -19 -12 -13 -16 -14 -17 -20 -1 -4
10 -3 14 3 11 5 -3 15 5 22 17 10 20 13 21 16 6 2 -10 8 -18 13 -18z m279 10
c0 -5 7 -10 15 -10 18 0 19 -12 3 -28 -7 -7 -9 -12 -5 -12 3 0 0 -15 -8 -32
-16 -40 -50 -44 -82 -10 -13 13 -23 26 -23 29 0 4 9 -3 20 -15 24 -26 65 -29
74 -6 3 9 4 20 1 24 -3 5 -1 11 5 15 13 8 3 25 -13 21 -7 -1 -9 -1 -4 1 17 10
5 25 -18 21 -14 -3 -25 -1 -25 3 0 5 14 9 30 9 17 0 30 -4 30 -10z m-82 -20
c-14 -22 -24 -19 -15 5 4 8 11 15 17 15 6 0 6 -7 -2 -20z m-401 -12 c-3 -8 -6
-5 -6 6 -1 11 2 17 5 13 3 -3 4 -12 1 -19z m68 12 c3 -5 1 -10 -4 -10 -6 0
-11 5 -11 10 0 6 2 10 4 10 3 0 8 -4 11 -10z m495 0 c0 -5 -5 -10 -11 -10 -5
0 -7 5 -4 10 3 6 8 10 11 10 2 0 4 -4 4 -10z m106 -17 c-4 -9 -2 -21 3 -27 7
-8 5 -12 -7 -13 -14 -1 -17 5 -14 33 2 18 8 31 14 28 5 -3 7 -13 4 -21z
m-2342 8 c4 -5 -3 -7 -14 -4 -23 6 -26 13 -6 13 8 0 17 -4 20 -9z m1766 -30
c15 -28 12 -35 -6 -17 -8 9 -20 14 -25 11 -10 -7 -12 8 -2 18 11 12 22 8 33
-12z m-428 -21 c-6 -15 -11 -19 -16 -12 -4 7 -1 18 6 26 17 19 20 14 10 -14z
m508 7 c10 -4 8 -6 -7 -6 -16 -1 -23 5 -23 17 0 10 3 13 8 6 4 -6 14 -14 22
-17z m284 7 c3 -8 2 -12 -4 -9 -6 3 -10 10 -10 16 0 14 7 11 14 -7z m-457 -9
c0 -8 -6 -16 -13 -19 -8 -3 -12 3 -11 15 1 22 24 26 24 4z m40 9 c-3 -3 -12
-4 -19 -1 -8 3 -5 6 6 6 11 1 17 -2 13 -5z m-1687 -24 c0 -5 -4 -10 -10 -10
-5 0 -10 5 -10 10 0 6 5 10 10 10 6 0 10 -4 10 -10z m1780 -14 c0 -7 -7 -13
-15 -13 -8 0 -15 4 -15 9 0 4 5 8 11 8 5 0 7 5 3 12 -4 7 -3 8 4 4 7 -4 12
-13 12 -20z m100 20 c0 -2 -7 -6 -15 -10 -8 -3 -15 -1 -15 4 0 6 7 10 15 10 8
0 15 -2 15 -4z m-203 -28 c-3 -8 -6 -5 -6 6 -1 11 2 17 5 13 3 -3 4 -12 1 -19z
m47 7 c-4 -9 3 -16 20 -21 14 -3 26 -11 26 -17 0 -6 -3 -7 -6 -4 -9 9 -41 -34
-49 -66 -10 -38 -22 -42 -22 -7 0 16 4 27 8 25 3 -3 9 5 12 17 4 13 1 26 -6
30 -8 5 -6 8 6 8 10 0 16 4 12 10 -3 5 -12 7 -20 3 -8 -3 -15 0 -15 7 0 6 5 8
10 5 6 -3 10 1 10 9 0 9 4 16 10 16 5 0 7 -7 4 -15z m113 9 c-3 -3 -12 -4 -19
-1 -8 3 -5 6 6 6 11 1 17 -2 13 -5z m-533 -25 c-3 -5 -9 -7 -14 -4 -4 3 -6
-13 -3 -35 4 -26 2 -40 -5 -40 -6 0 -9 7 -6 15 4 9 0 15 -10 15 -20 0 -20 0
-1 38 10 20 21 29 30 25 8 -3 12 -9 9 -14z m-1889 1 c3 -5 1 -10 -4 -10 -6 0
-11 5 -11 10 0 6 2 10 4 10 3 0 8 -4 11 -10z m2464 6 c-12 -10 -79 -16 -79 -6
0 5 19 10 42 10 23 0 39 -2 37 -4z m6 -26 c4 -6 -1 -7 -12 -4 -15 6 -15 4 2
-9 12 -9 22 -11 26 -5 11 17 18 -31 8 -60 -9 -26 -9 -25 -4 6 4 29 3 32 -15
22 -35 -19 -47 -13 -42 21 4 24 2 30 -8 24 -9 -5 -11 -4 -6 3 9 15 43 16 51 2z
m-195 -17 c0 -10 -4 -14 -8 -8 -4 6 -11 13 -16 18 -5 4 -2 7 7 7 10 0 17 -8
17 -17z m380 -18 c7 -13 21 -27 32 -31 10 -3 18 -10 18 -15 0 -6 -4 -7 -10 -4
-5 3 -10 3 -10 -2 0 -4 -17 -9 -37 -10 -21 -1 -32 1 -26 5 7 4 9 13 4 20 -9
15 -3 62 8 62 4 0 14 -11 21 -25z m-249 2 c-6 -8 -7 -18 -3 -22 4 -5 1 -5 -5
-1 -19 10 -16 36 3 36 13 0 14 -3 5 -13z m417 -44 l0 -48 -14 33 c-11 26 -11
36 -1 47 6 8 12 14 13 15 0 0 1 -21 2 -47z m-658 29 c0 -4 -9 -15 -20 -25 -22
-19 -29 0 -8 21 14 14 28 16 28 4z m208 -3 c-2 -6 -8 -10 -13 -10 -5 0 -11 4
-13 10 -2 6 4 11 13 11 9 0 15 -5 13 -11z m-558 -24 c0 -8 6 -15 14 -15 9 0
12 -8 8 -27 l-6 -28 -6 25 c-4 14 -12 24 -19 22 -7 -1 -10 2 -6 8 3 5 -2 10
-12 10 -15 0 -16 2 -3 10 21 14 30 12 30 -5z m440 -6 c0 -6 -4 -7 -10 -4 -5 3
-10 11 -10 16 0 6 5 7 10 4 6 -3 10 -11 10 -16z m-33 -14 c0 -8 -4 -12 -9 -9
-5 3 -6 10 -3 15 9 13 12 11 12 -6z m237 0 c-4 -8 -1 -15 5 -15 6 0 8 -7 5
-15 -4 -8 -10 -15 -15 -15 -10 0 -12 43 -2 53 10 11 13 8 7 -8z m331 7 c-5 -4
-11 -24 -13 -44 -3 -36 3 -44 32 -39 5 1 6 -6 2 -14 -3 -9 -9 -34 -12 -56 -5
-27 -11 -39 -23 -38 -11 0 -12 2 -3 6 9 4 10 8 2 18 -8 9 -8 15 0 20 5 3 10
18 10 33 -1 25 -2 26 -14 9 -13 -17 -14 -17 -14 5 0 13 -3 34 -7 47 -6 17 -5
22 3 17 7 -4 12 -3 12 2 0 19 -14 21 -26 4 -13 -16 -13 -16 -14 1 0 10 10 22
23 27 27 11 56 13 42 2z m-455 -6 c0 -11 -19 -15 -25 -6 -3 5 1 10 9 10 9 0
16 -2 16 -4z m88 -89 c-13 -24 -13 -24 -32 -6 -17 17 -18 19 -3 19 9 0 17 -6
17 -12 0 -9 4 -8 10 2 5 8 7 33 5 55 l-5 40 11 -37 c8 -28 7 -42 -3 -61z m-38
65 c0 -5 -7 -9 -15 -9 -8 0 -15 4 -15 9 0 4 7 8 15 8 8 0 15 -4 15 -8z m115
-2 c3 -5 1 -10 -4 -10 -6 0 -11 5 -11 10 0 6 2 10 4 10 3 0 8 -4 11 -10z m165
2 c0 9 3 9 10 -2 8 -12 10 -12 10 -1 0 8 2 12 5 9 3 -3 2 -13 -1 -22 -5 -14
-9 -15 -16 -4 -7 9 -8 7 -5 -8 6 -28 -23 -26 -34 2 -7 19 -8 19 -8 0 -1 -11
-4 -17 -7 -13 -3 3 -3 15 1 26 5 17 10 19 26 11 14 -8 19 -7 19 2z m270 4 c0
-3 -4 -8 -10 -11 -5 -3 -10 -1 -10 4 0 6 5 11 10 11 6 0 10 -2 10 -4z m-1160
-16 c0 -5 -5 -10 -11 -10 -5 0 -7 5 -4 10 3 6 8 10 11 10 2 0 4 -4 4 -10z
m400 -10 c0 -11 -4 -20 -9 -20 -5 0 -7 9 -4 20 3 11 7 20 9 20 2 0 4 -9 4 -20z
m150 10 c0 -5 -5 -10 -11 -10 -5 0 -7 5 -4 10 3 6 8 10 11 10 2 0 4 -4 4 -10z
m387 -9 c-3 -12 1 -22 9 -25 16 -6 19 -36 4 -36 -5 0 -10 6 -10 14 0 8 -6 16
-14 18 -10 2 -11 9 -5 26 10 27 23 30 16 3z m-897 -3 c0 -4 -7 -8 -15 -8 -8 0
-15 4 -15 8 0 5 7 9 15 9 8 0 15 -4 15 -9z m426 -8 c0 -11 -4 -20 -8 -20 -4 0
-8 9 -8 20 0 11 4 20 8 20 4 0 8 -9 8 -20z m574 0 c0 -5 -7 -10 -15 -10 -8 0
-15 5 -15 10 0 6 7 10 15 10 8 0 15 -4 15 -10z m-1125 -10 c3 -5 1 -10 -4 -10
-6 0 -11 5 -11 10 0 6 2 10 4 10 3 0 8 -4 11 -10z m770 -39 c-14 -13 -16 -13
-11 -1 3 8 9 24 13 35 7 19 7 19 11 1 2 -10 -4 -26 -13 -35z m-852 32 c-7 -2
-19 -2 -25 0 -7 3 -2 5 12 5 14 0 19 -2 13 -5z m172 -12 c-8 -14 -25 -14 -25
0 0 5 5 7 10 4 6 -3 10 -1 10 6 0 7 3 10 6 6 3 -3 3 -10 -1 -16z m540 9 c-8
-13 -35 -13 -55 0 -11 7 -5 10 23 10 23 0 36 -4 32 -10z m-245 -10 c0 -5 -2
-10 -4 -10 -3 0 -8 5 -11 10 -3 6 -1 10 4 10 6 0 11 -4 11 -10z m65 -10 c3 -5
1 -10 -4 -10 -6 0 -11 5 -11 10 0 6 2 10 4 10 3 0 8 -4 11 -10z m559 -57 c-6
-70 -14 -97 -14 -50 0 30 -3 32 -31 17 -15 -9 -19 -7 -20 7 0 16 -1 16 -9 -2
-8 -19 -9 -19 -9 3 -1 20 3 23 29 18 28 -4 56 14 33 21 -7 3 -7 11 1 28 19 42
26 28 20 -42z m-1000 33 c-3 -9 -10 -13 -15 -10 -5 3 -3 11 4 19 15 16 19 13
11 -9z m23 2 c-3 -8 -6 -5 -6 6 -1 11 2 17 5 13 3 -3 4 -12 1 -19z m628 13 c6
-11 -33 -26 -42 -17 -4 3 1 6 11 6 9 0 14 5 11 10 -3 6 -2 10 4 10 5 0 12 -4
16 -9z m-188 -33 c-3 -8 -6 -5 -6 6 -1 11 2 17 5 13 3 -3 4 -12 1 -19z m113 3
c8 -16 6 -21 -11 -26 -11 -4 -23 -4 -26 -1 -4 3 1 6 10 6 10 0 17 5 17 10 0 6
-4 10 -10 10 -5 0 -10 5 -10 10 0 17 19 11 30 -9z m151 -8 c-8 -15 -10 -15
-11 -2 0 17 10 32 18 25 2 -3 -1 -13 -7 -23z m-344 -5 c-3 -8 -6 -5 -6 6 -1
11 2 17 5 13 3 -3 4 -12 1 -19z m300 16 c-3 -3 -12 -4 -19 -1 -8 3 -5 6 6 6
11 1 17 -2 13 -5z m363 -13 c0 -11 3 -28 6 -38 3 -10 -3 -3 -15 15 -25 39 -25
42 -6 42 8 0 15 -9 15 -19z m-413 3 c-3 -3 -12 -4 -19 -1 -8 3 -5 6 6 6 11 1
17 -2 13 -5z m-14 -29 c-3 -9 -8 -14 -10 -11 -3 3 -2 9 2 15 9 16 15 13 8 -4z
m72 -5 c-10 -11 -23 -20 -28 -20 -6 0 -23 -15 -39 -32 -16 -18 -24 -24 -19
-13 18 35 38 55 54 55 8 0 17 7 21 15 3 8 11 15 17 15 7 0 5 -8 -6 -20z m335
10 c0 -5 -4 -10 -10 -10 -5 0 -10 5 -10 10 0 6 5 10 10 10 6 0 10 -4 10 -10z
m-2065 -20 c3 -5 1 -10 -4 -10 -6 0 -11 5 -11 10 0 6 2 10 4 10 3 0 8 -4 11
-10z m1307 -52 c-8 -8 -9 -4 -5 13 4 13 8 18 11 10 2 -7 -1 -18 -6 -23z m110
25 c-6 -3 -10 -8 -7 -13 3 -4 -4 -6 -15 -3 -29 8 -25 18 8 19 15 1 21 -1 14
-3z m595 -33 c2 -26 0 -30 -20 -29 -16 1 -17 3 -5 6 10 2 15 10 11 19 -3 7 -9
12 -13 9 -5 -3 -11 -1 -15 5 -3 5 1 10 9 10 9 0 16 5 16 12 0 23 13 -3 17 -32z
m113 25 c0 -8 -2 -15 -4 -15 -2 0 -6 7 -10 15 -3 8 -1 15 4 15 6 0 10 -7 10
-15z m-43 -27 c-3 -7 -5 -2 -5 12 0 14 2 19 5 13 2 -7 2 -19 0 -25z m-465 -24
c-9 -16 -10 -14 -9 8 1 15 6 23 11 18 4 -4 4 -16 -2 -26z m438 21 c0 -9 -6
-12 -16 -8 -13 5 -13 7 -2 14 17 11 18 11 18 -6z m323 -14 c-9 -12 -22 -21
-28 -21 -5 0 -3 5 5 10 12 8 12 10 -5 10 -15 1 -13 4 10 14 37 16 41 14 18
-13z m-258 9 c3 -5 -1 -10 -10 -10 -9 0 -13 5 -10 10 3 6 8 10 10 10 2 0 7 -4
10 -10z m-551 -26 c3 -8 2 -12 -4 -9 -6 3 -10 10 -10 16 0 14 7 11 14 -7z
m396 6 c0 -5 -4 -10 -10 -10 -5 0 -10 5 -10 10 0 6 5 10 10 10 6 0 10 -4 10
-10z m140 -21 c0 -5 -4 -9 -10 -9 -5 0 -10 7 -10 16 0 8 5 12 10 9 6 -3 10
-10 10 -16z m-670 -9 c0 -5 -5 -10 -11 -10 -5 0 -7 5 -4 10 3 6 8 10 11 10 2
0 4 -4 4 -10z m564 -12 c-3 -5 -9 -6 -14 -3 -10 6 -26 -14 -33 -40 -3 -13 -5
-10 -6 12 -1 23 4 33 17 35 29 7 41 5 36 -4z m32 -52 c-3 -14 -13 -26 -21 -26
-18 0 -19 9 -5 46 14 35 36 17 26 -20z m-751 -6 c-9 -41 -17 -33 -9 9 4 17 9
30 11 27 3 -2 2 -19 -2 -36z m172 8 c-3 -8 -6 -5 -6 6 -1 11 2 17 5 13 3 -3 4
-12 1 -19z m78 12 c-3 -5 -11 -10 -16 -10 -6 0 -7 5 -4 10 3 6 11 10 16 10 6
0 7 -4 4 -10z m466 -53 c18 -11 41 4 51 33 3 10 6 8 10 -8 4 -13 2 -22 -5 -22
-7 0 -6 -5 3 -11 12 -8 10 -9 -7 -4 -15 4 -23 2 -23 -5 0 -8 -9 -10 -27 -5
-31 7 -66 35 -45 35 7 0 13 12 13 28 l1 27 7 -29 c3 -16 13 -34 22 -39z m96
49 c-5 -16 -27 -19 -27 -3 0 7 7 14 15 14 9 0 14 -5 12 -11z m-2641 -103 c-11
-27 -26 -2 -25 40 l1 42 14 -34 c8 -18 13 -40 10 -48z m621 62 c0 -8 -4 -15
-9 -15 -4 0 -8 7 -8 15 0 8 4 15 8 15 5 0 9 -7 9 -15z m2028 5 c-3 -5 -10 -10
-16 -10 -5 0 -9 5 -9 10 0 6 7 10 16 10 8 0 12 -4 9 -10z m231 -16 c8 11 14
15 14 9 0 -7 -5 -15 -11 -19 -6 -3 -8 -16 -5 -27 3 -12 0 -28 -7 -36 -10 -12
-9 -13 2 -6 10 6 12 4 6 -5 -5 -8 -4 -11 3 -7 5 4 9 18 7 32 -2 19 2 25 16 25
11 0 19 -4 19 -10 0 -5 -6 -10 -12 -10 -10 0 -10 -2 0 -9 11 -7 10 -9 -3 -15
-9 -3 -13 -11 -10 -16 4 -6 1 -9 -6 -8 -6 2 -12 -9 -13 -23 -2 -28 18 -30 28
-3 9 23 24 16 24 -12 0 -16 -5 -23 -14 -20 -21 8 -33 -17 -25 -54 4 -19 10
-34 14 -32 25 9 38 1 32 -20 -7 -21 -6 -22 7 -5 12 15 13 11 16 -35 l3 -53
-36 -1 c-36 -1 -40 5 -26 41 8 19 8 19 19 0 10 -18 11 -18 12 -2 0 9 -5 17
-11 17 -6 0 -9 7 -5 15 9 25 -2 17 -17 -12 l-14 -26 -1 29 c-2 53 -10 119 -19
149 -5 17 -9 51 -8 78 1 26 -1 47 -4 47 -4 0 -7 12 -8 28 l-2 27 10 -25 c10
-24 11 -24 25 -6z m44 7 c0 -11 -4 -23 -10 -26 -6 -4 -10 5 -10 19 0 14 5 26
10 26 6 0 10 -9 10 -19z m-2290 -31 c0 -5 -2 -10 -4 -10 -3 0 -8 5 -11 10 -3
6 -1 10 4 10 6 0 11 -4 11 -10z m1170 -10 c0 -5 -4 -10 -10 -10 -5 0 -10 5
-10 10 0 6 5 10 10 10 6 0 10 -4 10 -10z m809 -37 c-1 -17 -2 -17 -6 0 -2 9
-9 14 -15 11 -6 -4 -22 -8 -35 -10 -19 -2 -22 0 -13 11 6 8 18 11 26 8 9 -3
14 1 14 12 0 15 2 15 15 1 8 -8 14 -23 14 -33z m-99 22 c0 -8 -4 -15 -10 -15
-5 0 -10 7 -10 15 0 8 5 15 10 15 6 0 10 -7 10 -15z m-713 -30 c-7 -13 -14
-20 -15 -14 -2 5 2 16 8 24 18 21 20 18 7 -10z m113 -15 c-6 -12 -14 -20 -17
-17 -2 3 1 14 8 26 17 26 24 19 9 -9z m675 -8 c-3 -8 -5 -19 -5 -25 0 -6 -9
-1 -20 11 -26 28 -25 32 5 30 17 -2 24 -7 20 -16z m-801 -46 c-3 -9 -10 -13
-16 -10 -5 3 -4 12 3 20 15 18 22 13 13 -10z m64 -21 c-3 -3 -9 2 -12 12 -6
14 -5 15 5 6 7 -7 10 -15 7 -18z m662 5 c0 -5 -4 -10 -9 -10 -6 0 -13 5 -16
10 -3 6 1 10 9 10 9 0 16 -4 16 -10z m30 -6 c0 -8 -4 -12 -10 -9 -5 3 -10 10
-10 16 0 5 5 9 10 9 6 0 10 -7 10 -16z m393 -16 c-4 -7 -6 -21 -5 -30 3 -19
-13 -24 -23 -8 -10 16 5 50 21 50 10 0 12 -5 7 -12z m-428 -6 c12 -9 16 -44 4
-36 -5 3 -9 -1 -9 -8 0 -7 -7 -21 -14 -30 -12 -16 -13 -15 -12 11 1 16 5 27 9
24 4 -2 5 7 1 21 -6 26 2 33 21 18z m-1950 -12 c3 -5 1 -10 -4 -10 -6 0 -11 5
-11 10 0 6 2 10 4 10 3 0 8 -4 11 -10z m88 -24 c4 -10 1 -13 -8 -9 -8 3 -12 9
-9 14 7 12 11 11 17 -5z m1112 -60 c-10 -14 -22 -23 -27 -20 -5 3 0 15 11 25
12 11 21 25 22 32 0 9 2 9 5 0 3 -6 -2 -23 -11 -37z m-1821 -14 c3 -5 -1 -9
-9 -9 -8 0 -12 4 -9 9 3 4 7 8 9 8 2 0 6 -4 9 -8z m601 -20 c-3 -3 -11 0 -18
7 -9 10 -8 11 6 5 10 -3 15 -9 12 -12z m2639 9 c4 -5 -3 -7 -14 -4 -23 6 -26
13 -6 13 8 0 17 -4 20 -9z m-2574 -31 c12 -8 10 -10 -10 -10 -14 0 -32 5 -40
10 -12 8 -10 10 10 10 14 0 32 -5 40 -10z m-337 -7 c-7 -2 -19 -2 -25 0 -7 3
-2 5 12 5 14 0 19 -2 13 -5z m-86 -9 c-3 -3 -12 -4 -19 -1 -8 3 -5 6 6 6 11 1
17 -2 13 -5z m2808 -44 c1 -19 -3 -30 -12 -30 -7 0 -13 5 -13 11 0 6 -6 9 -14
6 -7 -3 -19 0 -25 6 -8 8 -11 6 -11 -7 0 -9 3 -15 8 -12 10 6 47 -22 39 -31
-14 -13 -58 20 -55 41 1 12 -1 27 -5 34 -5 7 -3 12 7 12 9 0 16 -6 16 -14 0
-10 10 -14 30 -14 27 1 45 18 19 18 -5 0 -7 5 -4 11 10 15 18 3 20 -31z m20
-59 c3 -5 1 -12 -5 -16 -5 -3 -10 1 -10 9 0 18 6 21 15 7z m-2680 -21 c27 -7
25 -8 -17 -9 -27 0 -48 4 -48 9 0 11 21 11 65 0z m2632 -16 c-2 -2 -12 -1 -22
3 -18 6 -18 7 1 13 17 7 33 -5 21 -16z m-3070 10 c-3 -3 -12 -4 -19 -1 -8 3
-5 6 6 6 11 1 17 -2 13 -5z m3115 -65 c-2 -11 -11 -14 -28 -11 -27 5 -26 4
-18 26 6 15 8 15 21 -1 13 -16 13 -15 8 17 -6 34 -6 34 8 10 7 -14 12 -32 9
-41z m-3157 41 c3 -5 1 -10 -4 -10 -6 0 -11 5 -11 10 0 6 2 10 4 10 3 0 8 -4
11 -10z m582 -5 c0 -8 -6 -15 -13 -15 -8 0 -11 6 -8 15 4 8 9 15 13 15 4 0 8
-7 8 -15z m131 0 c2 -2 -22 -5 -52 -7 -38 -2 -57 1 -61 10 -3 9 9 11 53 6 31
-4 58 -8 60 -9z m-671 -1 c-3 -3 -12 -4 -19 -1 -8 3 -5 6 6 6 11 1 17 -2 13
-5z m60 0 c-3 -3 -12 -4 -19 -1 -8 3 -5 6 6 6 11 1 17 -2 13 -5z m2993 -39 c3
-47 1 -65 -9 -65 -5 0 -11 9 -14 20 -3 11 0 20 6 20 7 0 5 5 -3 10 -10 7 -11
10 -2 10 8 0 10 9 6 28 -5 18 -3 24 4 17 6 -5 11 -23 12 -40z m-2965 15 c-3
-5 -10 -10 -16 -10 -5 0 -9 5 -9 10 0 6 7 10 16 10 8 0 12 -4 9 -10z m3058
-47 c3 -5 7 -28 10 -53 2 -25 2 -37 0 -27 -2 9 -9 15 -14 12 -5 -4 -6 7 -3 25
5 23 3 30 -10 30 -9 0 -16 5 -16 10 0 12 27 14 33 3z m-58 -13 c-3 -5 -2 -10
3 -10 5 0 8 -10 7 -22 -3 -35 -20 -27 -23 10 -2 19 1 32 8 32 6 0 8 -4 5 -10z
m375 -60 c0 -16 -4 -30 -8 -30 -5 0 -9 14 -9 30 0 17 4 30 9 30 4 0 8 -13 8
-30z m-390 -11 c0 -11 -4 -17 -10 -14 -5 3 -10 1 -10 -4 0 -6 -4 -11 -10 -11
-5 0 -10 7 -10 15 0 8 5 15 10 15 6 0 10 7 10 16 0 8 5 12 10 9 6 -3 10 -15
10 -26z m370 11 c0 -5 -7 -10 -16 -10 -8 0 -12 5 -9 10 3 6 10 10 16 10 5 0 9
-4 9 -10z m50 0 c0 -5 -4 -10 -10 -10 -5 0 -10 5 -10 10 0 6 5 10 10 10 6 0
10 -4 10 -10z m-370 -10 c0 -5 -2 -10 -4 -10 -3 0 -8 5 -11 10 -3 6 -1 10 4
10 6 0 11 -4 11 -10z m107 -6 c-3 -3 -12 -4 -19 -1 -8 3 -5 6 6 6 11 1 17 -2
13 -5z m107 -39 c10 -15 14 -34 11 -45 -7 -22 -13 -24 -35 -10 -12 8 -13 13
-3 29 11 17 9 22 -9 36 -22 15 -22 15 -1 15 11 0 28 -11 37 -25z m66 6 c0 -6
13 -5 32 1 24 9 33 8 36 0 2 -7 11 -12 20 -12 15 0 15 -2 2 -10 -13 -9 -13
-11 0 -20 13 -8 12 -10 -2 -10 -11 0 -18 8 -18 20 0 16 -7 20 -30 20 -24 0
-30 -4 -31 -22 -1 -22 -1 -22 -8 2 l-7 25 -13 -23 c-16 -29 -24 -23 -15 12 6
24 34 38 34 17z m-250 -9 c0 -5 -7 -9 -15 -9 -8 0 -12 4 -9 9 3 4 9 8 15 8 5
0 9 -4 9 -8z m390 -11 c0 -9 -20 -37 -20 -29 0 3 -2 13 -5 21 -4 8 0 14 10 14
8 0 15 -3 15 -6z m-100 -11 c0 -5 -2 -10 -4 -10 -3 0 -8 5 -11 10 -3 6 -1 10
4 10 6 0 11 -4 11 -10z m-335 -38 c-2 -9 -4 -24 -4 -31 -1 -11 -4 -12 -12 -4
-11 11 -1 66 11 58 5 -3 7 -13 5 -23z m-35 -3 c0 -6 -4 -7 -10 -4 -5 3 -10 11
-10 16 0 6 5 7 10 4 6 -3 10 -11 10 -16z m111 -16 c-12 -20 -14 -14 -5 12 4 9
9 14 11 11 3 -2 0 -13 -6 -23z m25 -30 c-10 -10 -19 5 -10 18 6 11 8 11 12 0
2 -7 1 -15 -2 -18z m224 -3 c-8 -5 -10 -15 -6 -26 4 -10 4 -15 0 -11 -4 4 -13
2 -21 -4 -9 -9 -13 -8 -13 0 0 6 5 11 11 11 6 0 9 8 7 18 -4 19 25 48 31 30 2
-6 -2 -14 -9 -18z m60 20 c0 -5 -4 -10 -10 -10 -5 0 -10 5 -10 10 0 6 5 10 10
10 6 0 10 -4 10 -10z m70 0 c0 -5 -4 -10 -10 -10 -5 0 -10 5 -10 10 0 6 5 10
10 10 6 0 10 -4 10 -10z m44 -56 c-8 -6 -14 -16 -14 -23 0 -6 -7 -11 -15 -11
-17 0 -20 25 -5 35 17 11 0 26 -22 19 -14 -4 -18 -2 -14 5 4 6 18 11 32 11 16
0 24 6 25 18 0 11 5 6 14 -13 12 -26 12 -32 -1 -41z m-531 43 c7 4 8 0 4 -11
-4 -10 -7 -23 -8 -29 -1 -17 -18 25 -18 43 1 10 2 11 6 2 2 -6 10 -9 16 -5z
m251 -2 c-5 -12 -10 -13 -20 -4 -19 15 -18 19 6 19 13 0 18 -5 14 -15z m152
-26 c7 -11 -13 -29 -31 -28 -5 0 -5 3 2 5 7 3 9 12 6 20 -6 16 13 19 23 3z
m31 -29 c0 -30 -12 -41 -20 -17 -3 9 12 47 19 47 0 0 1 -13 1 -30z m-133 -6
c10 -25 -1 -29 -14 -5 -6 12 -7 21 -1 21 5 0 12 -7 15 -16z m-303 -37 c-10 -9
-11 -8 -5 6 3 10 9 15 12 12 3 -3 0 -11 -7 -18z m99 -17 c0 -5 -5 -10 -11 -10
-5 0 -7 5 -4 10 3 6 8 10 11 10 2 0 4 -4 4 -10z m225 0 c3 -5 -3 -10 -15 -10
-12 0 -18 5 -15 10 3 6 10 10 15 10 5 0 12 -4 15 -10z m-177 -25 c-3 -3 -9 2
-12 12 -6 14 -5 15 5 6 7 -7 10 -15 7 -18z m562 -27 c0 -5 -7 -8 -15 -8 -17 0
-18 2 -9 25 5 13 8 14 15 3 5 -7 9 -16 9 -20z m-613 16 c-3 -3 -12 -4 -19 -1
-8 3 -5 6 6 6 11 1 17 -2 13 -5z m530 -59 c-9 -8 -20 -15 -26 -15 -6 0 -11 -4
-11 -9 0 -5 -8 -12 -17 -15 -10 -4 0 10 22 32 22 21 41 34 43 30 2 -4 -3 -15
-11 -23z m-3617 -4 c-8 -5 -31 -11 -50 -15 l-35 -6 30 15 c33 16 82 21 55 6z
m3700 -1 c-19 -13 -30 -13 -30 0 0 6 10 10 23 10 18 0 19 -2 7 -10z m70 -14
c0 -8 -4 -18 -10 -21 -5 -3 -10 3 -10 14 0 12 5 21 10 21 6 0 10 -6 10 -14z
m-41 -27 c-9 -5 -10 -9 -2 -9 6 0 9 -9 6 -20 -6 -23 -23 -27 -23 -6 0 8 -7 16
-15 20 -22 8 -19 26 4 26 11 0 23 5 27 12 6 9 9 9 12 -1 2 -7 -2 -17 -9 -22z
m-114 11 c-3 -5 1 -10 10 -10 18 0 68 -50 59 -59 -3 -3 -13 4 -23 15 -9 12
-27 25 -39 28 -22 7 -31 36 -11 36 5 0 7 -4 4 -10z m-72 -23 c3 -8 -1 -14 -9
-14 -15 0 -18 9 -7 20 9 9 10 9 16 -6z m258 1 c1 -7 0 -17 -1 -23 -1 -5 -2
-20 -2 -32 -1 -28 -3 -28 -30 -3 -19 17 -19 20 -5 20 16 0 21 11 18 38 -1 6 3
12 9 12 5 0 11 -6 11 -12z m-3725 -7 c-4 -5 0 -11 6 -14 8 -2 9 -8 4 -13 -5
-5 -11 -4 -13 4 -3 6 -12 12 -21 13 -14 0 -13 2 3 9 27 11 27 11 21 1z m74 -6
c7 -9 8 -15 2 -15 -5 0 -12 7 -16 15 -3 8 -4 15 -2 15 2 0 9 -7 16 -15z m3354
-19 c-3 -9 -10 -13 -15 -10 -5 3 -3 11 4 19 15 16 19 13 11 -9z m126 4 c0 -5
-2 -10 -4 -10 -3 0 -8 5 -11 10 -3 6 -1 10 4 10 6 0 11 -4 11 -10z m-84 -31
c1 -20 -2 -26 -7 -17 -11 16 -12 48 -1 48 4 0 7 -14 8 -31z m-29 -2 c-7 -18
-69 -17 -75 1 -4 13 36 11 58 -3 5 -3 10 2 10 11 0 10 3 15 6 11 4 -3 4 -13 1
-20z m-3652 3 c3 -5 1 -10 -4 -10 -6 0 -11 5 -11 10 0 6 2 10 4 10 3 0 8 -4
11 -10z m3855 -10 c0 -5 -4 -10 -10 -10 -5 0 -10 5 -10 10 0 6 5 10 10 10 6 0
10 -4 10 -10z m-3806 -15 c3 -8 1 -15 -4 -15 -6 0 -10 7 -10 15 0 8 2 15 4 15
2 0 6 -7 10 -15z m3855 2 c8 -11 6 -13 -9 -12 -11 1 -23 5 -27 10 -5 4 -2 5 5
1 6 -4 12 -2 12 3 0 15 5 14 19 -2z m-128 -14 c34 -20 40 -39 7 -22 -25 14
-53 39 -43 39 4 0 20 -8 36 -17z m59 -3 c0 -5 -4 -10 -10 -10 -5 0 -10 5 -10
10 0 6 5 10 10 10 6 0 10 -4 10 -10z m30 -10 c0 -5 -5 -10 -11 -10 -5 0 -7 5
-4 10 3 6 8 10 11 10 2 0 4 -4 4 -10z m57 -22 c-3 -8 -6 -5 -6 6 -1 11 2 17 5
13 3 -3 4 -12 1 -19z m-369 -29 c-3 -8 -7 -3 -11 10 -4 17 -3 21 5 13 5 -5 8
-16 6 -23z m157 21 c3 -5 1 -10 -4 -10 -6 0 -11 5 -11 10 0 6 2 10 4 10 3 0 8
-4 11 -10z m65 0 c0 -5 -7 -10 -16 -10 -8 0 -12 5 -9 10 3 6 10 10 16 10 5 0
9 -4 9 -10z m76 -38 c-10 -11 -16 -12 -16 -4 0 7 5 12 10 12 6 0 10 8 11 18 0
11 2 13 6 4 3 -8 -2 -21 -11 -30z m-109 -8 c-3 -3 -12 -4 -19 -1 -8 3 -5 6 6
6 11 1 17 -2 13 -5z m-437 -44 c0 -5 -5 -10 -11 -10 -5 0 -7 5 -4 10 3 6 8 10
11 10 2 0 4 -4 4 -10z"/>
<path d="M2950 2643 c0 -8 5 -11 10 -8 6 3 10 -1 10 -10 0 -12 -6 -15 -21 -10
-20 7 -20 6 -2 -12 14 -15 21 -16 31 -7 19 19 15 51 -8 57 -13 3 -20 0 -20
-10z"/>
<path d="M2909 2590 c30 -26 46 -26 24 0 -10 11 -24 20 -33 20 -11 -1 -8 -6 9
-20z"/>
<path d="M2849 2536 c9 -22 31 -34 31 -17 0 6 -5 11 -11 11 -6 0 -9 6 -6 13 3
8 -1 14 -8 14 -9 0 -11 -7 -6 -21z"/>
<path d="M2896 2551 c-3 -5 0 -11 8 -14 8 -3 17 1 20 9 6 15 -19 20 -28 5z"/>
<path d="M2817 2509 c4 -13 8 -18 11 -10 2 7 -1 18 -6 23 -8 8 -9 4 -5 -13z"/>
<path d="M2291 2354 c0 -11 3 -14 6 -6 3 7 2 16 -1 19 -3 4 -6 -2 -5 -13z"/>
<path d="M2314 2287 c3 -16 6 -33 6 -38 0 -5 3 -9 8 -9 4 0 7 17 7 38 0 26 -4
39 -13 39 -10 0 -12 -9 -8 -30z"/>
<path d="M2825 1810 c4 -6 11 -8 16 -5 14 9 11 15 -7 15 -8 0 -12 -5 -9 -10z"/>
<path d="M2730 1792 c0 -5 7 -15 15 -22 8 -7 15 -8 15 -2 0 5 -7 15 -15 22 -8
7 -15 8 -15 2z"/>
<path d="M2180 3440 c0 -5 7 -7 15 -4 8 4 15 8 15 10 0 2 -7 4 -15 4 -8 0 -15
-4 -15 -10z"/>
<path d="M2130 3330 c0 -5 5 -10 11 -10 5 0 7 5 4 10 -3 6 -8 10 -11 10 -2 0
-4 -4 -4 -10z"/>
<path d="M2461 3264 c0 -11 3 -14 6 -6 3 7 2 16 -1 19 -3 4 -6 -2 -5 -13z"/>
<path d="M2117 3256 c-4 -10 -1 -13 8 -9 8 3 12 9 9 14 -7 12 -11 11 -17 -5z"/>
<path d="M170 3228 c0 -4 7 -8 15 -8 8 0 15 4 15 8 0 5 -7 9 -15 9 -8 0 -15
-4 -15 -9z"/>
<path d="M2328 3233 c7 -3 16 -2 19 1 4 3 -2 6 -13 5 -11 0 -14 -3 -6 -6z"/>
<path d="M2058 3173 c7 -3 16 -2 19 1 4 3 -2 6 -13 5 -11 0 -14 -3 -6 -6z"/>
<path d="M2455 3160 c-3 -5 -1 -10 4 -10 6 0 11 5 11 10 0 6 -2 10 -4 10 -3 0
-8 -4 -11 -10z"/>
<path d="M2508 3130 c2 -16 6 -30 8 -30 2 0 4 14 4 30 0 17 -4 30 -8 30 -5 0
-7 -13 -4 -30z"/>
<path d="M2476 3093 c-6 -14 -5 -15 5 -6 7 7 10 15 7 18 -3 3 -9 -2 -12 -12z"/>
<path d="M2180 3070 c-13 -8 -12 -10 3 -10 9 0 17 5 17 10 0 12 -1 12 -20 0z"/>
<path d="M2235 3070 c-3 -5 -1 -10 4 -10 6 0 11 5 11 10 0 6 -2 10 -4 10 -3 0
-8 -4 -11 -10z"/>
<path d="M1920 3051 c0 -6 4 -13 10 -16 6 -3 7 1 4 9 -7 18 -14 21 -14 7z"/>
<path d="M2175 3030 c-8 -13 5 -13 25 0 13 8 13 10 -2 10 -9 0 -20 -4 -23 -10z"/>
<path d="M2491 2974 c0 -11 3 -14 6 -6 3 7 2 16 -1 19 -3 4 -6 -2 -5 -13z"/>
<path d="M2541 2974 c0 -11 3 -14 6 -6 3 7 2 16 -1 19 -3 4 -6 -2 -5 -13z"/>
<path d="M2385 2919 c-4 -6 -5 -12 -2 -15 2 -3 7 2 10 11 7 17 1 20 -8 4z"/>
<path d="M2410 2890 c0 -5 5 -10 11 -10 5 0 7 5 4 10 -3 6 -8 10 -11 10 -2 0
-4 -4 -4 -10z"/>
<path d="M287 2869 c4 -13 8 -18 11 -10 2 7 -1 18 -6 23 -8 8 -9 4 -5 -13z"/>
<path d="M57 2873 c-4 -3 -7 -13 -7 -22 1 -13 3 -13 15 2 13 18 14 17 18 -5 4
-21 4 -20 6 5 1 26 -16 37 -32 20z"/>
<path d="M262 2855 c0 -16 2 -22 5 -12 2 9 2 23 0 30 -3 6 -5 -1 -5 -18z"/>
<path d="M2483 2865 c-3 -9 -3 -19 1 -22 3 -4 6 2 6 12 0 14 3 15 14 6 10 -9
15 -8 20 4 4 10 -1 15 -15 15 -11 0 -22 -7 -26 -15z"/>
<path d="M152 2853 c2 -9 10 -19 18 -21 12 -4 13 -3 3 10 -7 8 -10 18 -6 21 3
4 1 7 -6 7 -7 0 -11 -8 -9 -17z"/>
<path d="M2541 2854 c0 -11 3 -14 6 -6 3 7 2 16 -1 19 -3 4 -6 -2 -5 -13z"/>
<path d="M2363 2796 c1 -6 -8 -15 -20 -21 -39 -17 -29 -30 14 -19 23 6 38 51
17 51 -7 0 -12 -5 -11 -11z"/>
<path d="M2550 2772 c0 -18 5 -32 10 -32 6 0 8 11 4 28 -10 39 -14 40 -14 4z"/>
<path d="M2431 2764 c0 -11 3 -14 6 -6 3 7 2 16 -1 19 -3 4 -6 -2 -5 -13z"/>
<path d="M2395 2740 c3 -5 8 -10 11 -10 2 0 4 5 4 10 0 6 -5 10 -11 10 -5 0
-7 -4 -4 -10z"/>
<path d="M2421 2724 c0 -11 3 -14 6 -6 3 7 2 16 -1 19 -3 4 -6 -2 -5 -13z"/>
<path d="M2333 2723 c9 -3 17 -12 18 -21 0 -14 2 -13 10 3 7 15 8 11 3 -15 -3
-19 -6 -41 -7 -47 0 -7 -6 -13 -13 -13 -8 0 -12 6 -10 13 1 6 1 9 -1 4 -3 -4
-10 -4 -15 -1 -6 4 -8 2 -4 -4 3 -5 0 -13 -6 -15 -8 -3 -6 -6 5 -6 10 -1 28
-10 39 -21 12 -11 27 -19 32 -17 16 5 30 58 18 66 -15 9 -27 61 -13 61 6 0 11
-4 11 -10 0 -5 5 -10 12 -10 6 0 4 8 -6 19 -11 12 -30 19 -54 18 -20 0 -29 -2
-19 -4z m53 -112 c-20 -20 -24 -13 -18 32 l4 38 14 -27 c13 -24 13 -30 0 -43z"/>
<path d="M2467 2716 c-5 -12 0 -16 21 -15 16 0 21 3 12 6 -8 3 -18 10 -21 15
-3 5 -9 3 -12 -6z"/>
<path d="M2436 2703 c-6 -14 -5 -15 5 -6 7 7 10 15 7 18 -3 3 -9 -2 -12 -12z"/>
<path d="M2316 2687 c3 -10 9 -15 12 -12 3 3 0 11 -7 18 -10 9 -11 8 -5 -6z"/>
<path d="M2290 2670 c0 -5 5 -10 11 -10 5 0 7 5 4 10 -3 6 -8 10 -11 10 -2 0
-4 -4 -4 -10z"/>
<path d="M2420 2670 c-13 -8 -12 -10 3 -10 9 0 17 -5 17 -11 0 -5 4 -7 10 -4
5 3 7 0 5 -8 -3 -7 3 -21 14 -31 18 -17 19 -17 26 6 4 13 14 30 22 39 12 14
11 17 -7 22 -20 5 -24 -2 -21 -48 l1 -20 -9 20 c-5 11 -7 23 -4 28 2 4 -5 7
-16 7 -10 0 -21 4 -23 10 -2 6 -8 6 -18 0z"/>
<path d="M2559 2658 c-5 -17 -4 -48 3 -48 4 0 8 11 8 25 0 20 -7 34 -11 23z"/>
<path d="M2585 2630 c3 -5 8 -10 11 -10 2 0 4 5 4 10 0 6 -5 10 -11 10 -5 0
-7 -4 -4 -10z"/>
<path d="M2275 2610 c-3 -6 -3 -20 0 -31 5 -16 12 -19 32 -14 16 4 22 2 18 -4
-3 -6 0 -8 8 -5 18 7 11 40 -10 48 -11 4 -13 2 -9 -9 4 -10 -1 -15 -15 -15
-16 0 -19 4 -14 20 7 21 1 27 -10 10z"/>
<path d="M2420 2595 c0 -8 6 -15 14 -15 22 0 28 17 10 24 -22 9 -24 8 -24 -9z"/>
<path d="M2290 2541 c0 -5 10 -11 23 -15 33 -9 37 -8 37 10 0 14 -3 14 -15 4
-10 -9 -15 -9 -15 -1 0 6 -7 11 -15 11 -8 0 -15 -4 -15 -9z"/>
<path d="M2600 2473 c0 -7 -10 -17 -22 -24 -18 -10 -20 -9 -15 5 4 10 3 15 -2
12 -9 -6 -7 -76 3 -76 3 0 16 0 28 0 12 0 19 3 15 6 -3 3 -1 17 4 31 6 16 6
31 -1 41 -5 9 -10 12 -10 5z m-7 -54 c-4 -15 -9 -17 -17 -9 -8 8 -7 13 4 20 8
5 16 10 17 10 0 0 -1 -9 -4 -21z"/>
<path d="M2446 2401 c-17 -6 -17 -8 -3 -14 8 -3 21 1 27 9 13 15 6 17 -24 5z"/>
<path d="M2916 2357 c4 -14 1 -18 -13 -15 -10 2 -21 10 -25 18 -5 11 -7 9 -7
-7 -1 -29 9 -54 20 -47 5 3 9 0 9 -7 0 -7 3 -9 7 -6 3 4 12 2 20 -5 7 -6 16
-8 20 -5 3 4 12 2 20 -5 10 -8 17 -7 27 8 8 10 11 25 7 34 -4 11 -7 10 -9 -7
-2 -13 -9 -23 -16 -23 -17 0 -59 37 -48 42 5 1 12 13 16 25 6 18 3 22 -14 20
-15 -1 -18 -6 -14 -20z"/>
<path d="M2950 2349 c0 -5 5 -7 10 -4 6 3 10 8 10 11 0 2 -4 4 -10 4 -5 0 -10
-5 -10 -11z"/>
<path d="M2605 2340 c-3 -5 -1 -10 4 -10 6 0 11 5 11 10 0 6 -2 10 -4 10 -3 0
-8 -4 -11 -10z"/>
<path d="M3129 2331 c6 -11 9 -33 6 -48 l-6 -28 14 24 14 23 6 -23 c3 -13 9
-20 12 -17 9 9 -28 81 -43 86 -11 3 -12 0 -3 -17z"/>
<path d="M2950 2316 c7 -7 13 -7 20 0 6 6 3 10 -10 10 -13 0 -16 -4 -10 -10z"/>
<path d="M3106 2315 c4 -8 8 -15 10 -15 2 0 4 7 4 15 0 8 -4 15 -10 15 -5 0
-7 -7 -4 -15z"/>
<path d="M2853 2283 c-1 -24 2 -32 8 -22 11 18 12 59 1 59 -4 0 -9 -16 -9 -37z"/>
<path d="M3055 2299 c-4 -6 -4 -13 -1 -16 8 -8 36 5 36 17 0 13 -27 13 -35 -1z"/>
<path d="M3190 2280 c1 -24 26 -51 43 -44 18 6 31 34 17 34 -6 0 -10 -4 -10
-10 0 -5 -4 -10 -9 -10 -5 0 -7 9 -4 20 3 11 0 20 -6 20 -6 0 -11 -6 -11 -12
0 -9 -4 -8 -10 2 -9 13 -10 13 -10 0z"/>
<path d="M2880 2268 c0 -8 7 -15 15 -15 18 0 15 19 -3 25 -7 2 -12 -3 -12 -10z"/>
<path d="M2930 2259 c0 -5 12 -9 27 -9 30 0 27 9 -6 15 -11 2 -21 0 -21 -6z"/>
<path d="M3001 2254 c0 -11 3 -14 6 -6 3 7 2 16 -1 19 -3 4 -6 -2 -5 -13z"/>
<path d="M3034 2258 c-4 -7 -3 -8 4 -4 7 4 12 2 12 -3 0 -6 7 -11 16 -11 14 0
14 3 4 15 -15 18 -26 19 -36 3z"/>
<path d="M3102 2238 c-15 -6 -14 -7 3 -8 20 -1 20 -2 1 -9 -19 -7 -19 -8 2
-13 15 -4 22 -2 22 8 0 17 17 19 22 2 3 -7 7 -4 10 7 4 16 0 20 -19 20 -13 0
-31 -3 -41 -7z"/>
<path d="M3180 2241 c0 -5 5 -13 10 -16 6 -3 10 -2 10 4 0 5 -4 13 -10 16 -5
3 -10 2 -10 -4z"/>
<path d="M3267 2236 c-3 -8 0 -17 8 -20 9 -3 13 2 12 15 -2 22 -13 25 -20 5z"/>
<path d="M2924 2223 c3 -8 6 -17 6 -21 0 -3 6 3 14 13 12 17 13 15 12 -26 -1
-25 -5 -50 -9 -55 -13 -21 5 -22 25 -2 19 19 20 22 5 33 -10 7 -17 18 -17 25
0 10 3 10 15 0 12 -10 19 -10 27 -2 9 9 8 12 -5 12 -9 0 -17 7 -17 15 0 16 -1
16 -38 20 -17 2 -22 -2 -18 -12z"/>
<path d="M3040 2230 c0 -6 7 -10 15 -10 8 0 15 2 15 4 0 2 -7 6 -15 10 -8 3
-15 1 -15 -4z"/>
<path d="M2913 2185 c2 -26 -1 -30 -20 -28 -20 2 -23 -1 -21 -37 1 -21 5 -37
10 -34 5 4 7 12 4 19 -3 8 2 11 14 8 23 -6 36 42 21 78 -10 23 -10 23 -8 -6z"/>
<path d="M3185 2200 c-16 -7 -17 -9 -3 -9 9 -1 20 4 23 9 7 11 7 11 -20 0z"/>
<path d="M3230 2191 c0 -5 11 -8 25 -8 14 0 25 3 25 8 0 5 -11 9 -25 9 -14 0
-25 -4 -25 -9z"/>
<path d="M3100 2186 c0 -9 30 -14 35 -6 4 6 -3 10 -14 10 -12 0 -21 -2 -21 -4z"/>
<path d="M3152 2171 c2 -7 7 -12 11 -12 12 1 9 15 -3 20 -7 2 -11 -2 -8 -8z"/>
<path d="M3356 2172 c-2 -4 4 -9 15 -9 11 -1 17 2 14 8 -7 11 -22 12 -29 1z"/>
<path d="M3086 2144 c5 -19 4 -25 -5 -20 -16 10 -26 -23 -11 -37 10 -10 12 -8
7 5 -4 11 0 19 14 23 28 9 43 41 23 49 -28 11 -34 6 -28 -20z m24 6 c0 -5 -2
-10 -4 -10 -3 0 -8 5 -11 10 -3 6 -1 10 4 10 6 0 11 -4 11 -10z"/>
<path d="M3255 2160 c3 -5 8 -10 11 -10 2 0 4 5 4 10 0 6 -5 10 -11 10 -5 0
-7 -4 -4 -10z"/>
<path d="M3282 2150 c0 -14 2 -19 5 -12 2 6 2 18 0 25 -3 6 -5 1 -5 -13z"/>
<path d="M3313 2144 c-8 -17 -8 -24 -1 -22 13 5 31 48 20 48 -4 0 -12 -12 -19
-26z"/>
<path d="M3150 2132 c0 -7 -7 -12 -15 -12 -18 0 -20 -21 -3 -38 14 -14 54 -16
62 -3 4 5 -2 8 -11 7 -10 -2 -26 2 -35 7 -15 10 -15 12 0 23 9 7 14 16 9 20
-4 4 -7 2 -7 -4z"/>
<path d="M3178 2123 c7 -3 16 -2 19 1 4 3 -2 6 -13 5 -11 0 -14 -3 -6 -6z"/>
<path d="M3361 2103 c0 -25 1 -26 9 -8 12 27 12 35 0 35 -5 0 -10 -12 -9 -27z"/>
<path d="M3096 2095 c-3 -8 -1 -15 4 -15 6 0 10 7 10 15 0 8 -2 15 -4 15 -2 0
-6 -7 -10 -15z"/>
<path d="M3173 2103 c9 -2 23 -2 30 0 6 3 -1 5 -18 5 -16 0 -22 -2 -12 -5z"/>
<path d="M3278 2098 c-4 -9 4 -13 24 -14 17 -1 27 3 25 10 -5 16 -44 19 -49 4z"/>
<path d="M3415 2079 c-5 -15 -9 -18 -15 -9 -5 9 -9 9 -14 1 -4 -6 -2 -11 5
-11 8 0 9 -10 5 -32 -3 -17 -4 -30 -2 -27 8 7 35 93 31 97 -2 2 -6 -6 -10 -19z"/>
<path d="M3207 2069 c-10 -11 -16 -23 -13 -26 2 -3 12 4 22 15 9 11 24 18 33
15 14 -4 14 -3 1 6 -20 15 -23 14 -43 -10z"/>
<path d="M3440 2086 c0 -2 7 -7 16 -10 8 -3 12 -2 9 4 -6 10 -25 14 -25 6z"/>
<path d="M3074 2061 c3 -5 15 -7 26 -4 28 7 25 13 -6 13 -14 0 -23 -4 -20 -9z"/>
<path d="M3290 2062 c0 -5 7 -13 16 -16 10 -4 14 -1 12 6 -5 15 -28 23 -28 10z"/>
<path d="M3150 2040 c0 -11 -7 -23 -16 -27 -13 -5 -13 -7 -2 -14 18 -12 40
-11 33 1 -3 6 4 10 17 10 19 0 20 -2 8 -11 -12 -9 -12 -10 -1 -7 24 7 25 28 2
28 -12 0 -21 6 -21 14 0 8 -4 18 -10 21 -5 3 -10 -3 -10 -15z"/>
<path d="M3427 2053 c-4 -3 -7 -11 -7 -17 0 -6 5 -5 12 2 6 6 9 14 7 17 -3 3
-9 2 -12 -2z"/>
<path d="M3454 2048 c-4 -6 -3 -8 4 -4 5 3 13 0 15 -6 3 -8 6 -6 6 5 1 19 -14
23 -25 5z"/>
<path d="M3121 2034 c0 -11 3 -14 6 -6 3 7 2 16 -1 19 -3 4 -6 -2 -5 -13z"/>
<path d="M3540 2040 c-8 -5 -12 -12 -9 -15 4 -3 12 1 19 10 14 17 11 19 -10 5z"/>
<path d="M3266 2024 c-9 -24 -7 -31 4 -14 7 12 10 8 10 -15 1 -25 2 -27 11
-12 5 9 18 17 27 17 14 0 15 2 2 9 -8 6 -18 7 -22 5 -4 -3 -8 2 -8 10 0 21
-16 21 -24 0z"/>
<path d="M3231 2014 c0 -11 3 -14 6 -6 3 7 2 16 -1 19 -3 4 -6 -2 -5 -13z"/>
<path d="M3429 2012 c-11 -2 -15 -11 -12 -30 3 -19 2 -23 -5 -13 -8 11 -10 11
-15 0 -5 -12 -7 -12 -15 -1 -7 11 -10 11 -15 -2 -11 -27 3 -45 38 -52 19 -3
36 -13 38 -23 3 -9 4 -4 4 10 -1 21 -5 25 -25 21 -18 -4 -23 -1 -20 9 3 8 11
13 17 12 9 -3 16 25 12 50 -2 12 17 8 21 -5 3 -7 7 -5 11 6 4 9 3 15 -2 11 -5
-3 -11 -2 -13 3 -1 4 -10 6 -19 4z"/>
<path d="M3560 2010 c0 -5 5 -10 11 -10 5 0 7 5 4 10 -3 6 -8 10 -11 10 -2 0
-4 -4 -4 -10z"/>
<path d="M3535 1999 c-4 -6 -5 -12 -2 -15 2 -3 7 2 10 11 7 17 1 20 -8 4z"/>
<path d="M3672 1976 c7 -8 15 -12 17 -11 5 6 -10 25 -20 25 -5 0 -4 -6 3 -14z"/>
<path d="M3858 1983 c7 -3 16 -2 19 1 4 3 -2 6 -13 5 -11 0 -14 -3 -6 -6z"/>
<path d="M3980 1980 c0 -5 5 -10 10 -10 6 0 10 5 10 10 0 6 -4 10 -10 10 -5 0
-10 -4 -10 -10z"/>
<path d="M3240 1960 c0 -12 7 -20 16 -20 10 0 14 -5 10 -16 -4 -10 -2 -13 6
-8 8 5 9 2 5 -10 -4 -10 -7 -20 -7 -22 0 -3 -4 -3 -9 1 -16 9 -23 -13 -11 -32
11 -17 11 -17 6 0 -3 9 -2 17 2 17 5 0 18 9 29 19 21 20 21 20 26 0 3 -10 1
-19 -3 -19 -4 0 -6 -9 -3 -21 4 -14 8 -17 13 -9 5 8 9 8 11 2 2 -6 9 -4 17 4
10 11 10 14 -2 14 -12 0 -26 20 -26 37 0 3 14 3 30 0 17 -4 30 -2 30 3 0 6
-11 11 -25 11 -56 3 -64 4 -71 12 -4 4 -2 7 4 7 7 0 12 5 12 11 0 6 -6 9 -14
6 -8 -3 -16 2 -19 14 -7 25 -27 25 -27 -1z"/>
<path d="M3626 1963 c-6 -14 -5 -15 5 -6 7 7 10 15 7 18 -3 3 -9 -2 -12 -12z"/>
<path d="M3310 1960 c0 -5 4 -10 9 -10 6 0 13 5 16 10 3 6 -1 10 -9 10 -9 0
-16 -4 -16 -10z"/>
<path d="M3468 1935 c-6 -30 -3 -43 8 -33 3 4 4 19 2 35 l-3 28 -7 -30z"/>
<path d="M3591 1943 c-1 -17 11 -22 34 -12 19 9 19 9 -2 5 -12 -2 -24 1 -27 8
-3 8 -5 8 -5 -1z"/>
<path d="M3200 1909 c0 -4 -8 -10 -17 -12 -10 -3 -6 -4 10 -4 15 1 27 6 27 12
0 5 4 4 9 -3 7 -11 9 -11 14 0 3 10 -3 14 -19 14 -13 0 -24 -3 -24 -7z"/>
<path d="M3521 1903 c-1 -16 5 -23 17 -23 10 0 13 3 6 8 -6 4 -14 14 -17 22
-4 10 -6 8 -6 -7z"/>
<path d="M3335 1880 c3 -5 10 -10 16 -10 5 0 9 5 9 10 0 6 -7 10 -16 10 -8 0
-12 -4 -9 -10z"/>
<path d="M3178 1873 c7 -3 16 -2 19 1 4 3 -2 6 -13 5 -11 0 -14 -3 -6 -6z"/>
<path d="M3417 1873 c-7 -11 10 -40 18 -31 4 4 3 14 -3 24 -5 9 -12 12 -15 7z"/>
<path d="M3375 1860 c-3 -5 -1 -10 4 -10 6 0 11 5 11 10 0 6 -2 10 -4 10 -3 0
-8 -4 -11 -10z"/>
<path d="M3450 1858 c0 -9 5 -20 11 -23 17 -11 20 0 4 21 -13 17 -14 17 -15 2z"/>
<path d="M3681 1844 c0 -11 3 -14 6 -6 3 7 2 16 -1 19 -3 4 -6 -2 -5 -13z"/>
<path d="M3190 1831 c0 -6 4 -11 9 -11 5 0 12 -10 14 -22 4 -16 5 -14 4 6 -2
27 -27 52 -27 27z"/>
<path d="M3353 1829 c-8 -8 -8 -20 -2 -36 5 -14 6 -30 2 -36 -4 -7 1 -6 11 2
12 10 14 17 6 25 -16 16 -12 44 8 49 13 4 13 5 2 6 -9 0 -21 -4 -27 -10z"/>
<path d="M3585 1830 c3 -5 14 -10 23 -10 15 0 15 2 2 10 -20 13 -33 13 -25 0z"/>
<path d="M3110 1811 c0 -6 4 -12 9 -15 13 -8 42 4 35 15 -7 12 -44 12 -44 0z"/>
<path d="M3251 1808 c0 -9 -4 -25 -7 -35 -5 -17 -5 -17 6 0 6 10 9 25 7 35 -4
15 -5 15 -6 0z"/>
<path d="M3280 1809 c0 -5 7 -9 15 -9 8 0 15 -8 15 -17 0 -16 -2 -16 -11 -3
-9 13 -10 13 -8 0 3 -28 -1 -41 -11 -35 -6 3 -7 -1 -4 -9 3 -9 11 -14 17 -13
7 1 12 -10 13 -24 1 -23 -3 -26 -23 -24 -12 1 -23 -1 -23 -6 0 -4 -3 -16 -6
-26 -5 -15 -4 -15 5 -3 6 8 11 11 11 6 0 -5 6 -3 13 3 8 6 17 8 20 4 4 -3 8
-1 8 5 1 7 3 17 4 22 1 6 3 15 4 22 1 9 4 9 12 1 8 -8 8 -17 -1 -33 -6 -12 -9
-24 -6 -28 3 -3 6 0 6 7 0 7 5 9 12 5 7 -5 9 -2 5 9 -3 9 0 18 9 21 8 3 14 15
14 27 0 16 -5 20 -20 16 -11 -3 -20 0 -20 6 0 8 -3 7 -9 -1 -6 -11 -9 -9 -13
6 -5 16 -1 20 13 17 14 -3 19 2 19 18 0 18 -2 19 -10 7 -8 -12 -10 -11 -10 6
0 13 -8 24 -20 27 -11 3 -20 1 -20 -4z m80 -105 c0 -8 -4 -12 -10 -9 -5 3 -10
10 -10 16 0 5 5 9 10 9 6 0 10 -7 10 -16z"/>
<path d="M3826 1785 c-9 -26 -7 -32 5 -12 6 10 9 21 6 23 -2 3 -7 -2 -11 -11z"/>
<path d="M3400 1783 c0 -6 8 -17 18 -24 16 -13 16 -13 2 6 -8 11 -16 22 -17
24 -2 2 -3 0 -3 -6z"/>
<path d="M3866 1775 c4 -8 7 -15 9 -15 2 0 5 7 9 15 3 9 0 15 -9 15 -9 0 -12
-6 -9 -15z"/>
<path d="M3621 1754 c0 -11 3 -14 6 -6 3 7 2 16 -1 19 -3 4 -6 -2 -5 -13z"/>
<path d="M3756 1753 c-6 -14 -5 -15 5 -6 7 7 10 15 7 18 -3 3 -9 -2 -12 -12z"/>
<path d="M3234 1723 c14 -14 29 -24 32 -20 8 8 -28 47 -45 47 -9 0 -4 -9 13
-27z"/>
<path d="M3410 1735 c0 -5 5 -17 10 -25 5 -8 10 -10 10 -5 0 6 -5 17 -10 25
-5 8 -10 11 -10 5z"/>
<path d="M3540 1730 c0 -5 5 -10 10 -10 6 0 10 5 10 10 0 6 -4 10 -10 10 -5 0
-10 -4 -10 -10z"/>
<path d="M3200 1710 c0 -5 5 -10 10 -10 6 0 10 5 10 10 0 6 -4 10 -10 10 -5 0
-10 -4 -10 -10z"/>
<path d="M3281 1694 c0 -11 3 -14 6 -6 3 7 2 16 -1 19 -3 4 -6 -2 -5 -13z"/>
<path d="M3380 1675 c-7 -9 -8 -15 -2 -15 5 0 12 7 16 15 3 8 4 15 2 15 -2 0
-9 -7 -16 -15z"/>
<path d="M3546 1675 c4 -8 8 -15 10 -15 2 0 4 7 4 15 0 8 -4 15 -10 15 -5 0
-7 -7 -4 -15z"/>
<path d="M3591 1674 c0 -11 3 -14 6 -6 3 7 2 16 -1 19 -3 4 -6 -2 -5 -13z"/>
<path d="M3186 1661 c-15 -16 -15 -23 -6 -42 10 -17 14 -19 21 -8 4 8 4 16 -3
20 -6 4 -7 12 -4 18 4 6 12 9 17 6 5 -3 6 1 3 9 -8 20 -7 20 -28 -3z"/>
<path d="M3751 1664 c0 -11 3 -14 6 -6 3 7 2 16 -1 19 -3 4 -6 -2 -5 -13z"/>
<path d="M3630 1654 c0 -8 5 -12 10 -9 6 4 8 11 5 16 -9 14 -15 11 -15 -7z"/>
<path d="M3682 1654 c-7 -8 -8 -14 -3 -14 10 0 25 19 20 25 -2 1 -10 -3 -17
-11z"/>
<path d="M3366 1641 c-4 -7 -5 -15 -2 -18 9 -9 19 4 14 18 -4 11 -6 11 -12 0z"/>
<path d="M3541 1634 c0 -11 3 -14 6 -6 3 7 2 16 -1 19 -3 4 -6 -2 -5 -13z"/>
<path d="M3450 1630 c0 -5 5 -10 10 -10 6 0 10 5 10 10 0 6 -4 10 -10 10 -5 0
-10 -4 -10 -10z"/>
<path d="M3238 1595 c-4 -16 -10 -39 -13 -50 -6 -17 -5 -18 5 -5 9 12 11 9 6
-15 -3 -16 -3 -24 0 -17 11 25 24 11 24 -28 0 -22 -5 -40 -10 -40 -6 0 -8 12
-5 28 5 25 5 25 -4 4 -11 -23 -5 -52 9 -52 5 0 11 6 13 13 3 7 6 5 6 -5 1 -18
31 -15 31 3 0 5 -7 9 -15 9 -18 0 -20 27 -2 33 9 3 9 7 -1 19 -7 9 -10 22 -7
30 4 10 -1 17 -14 21 -12 3 -21 13 -21 24 0 10 3 14 8 8 10 -15 34 -13 40 3 2
7 -5 12 -16 12 -12 0 -22 8 -24 18 -3 11 -6 7 -10 -13z"/>
<path d="M3290 1610 c0 -5 5 -10 11 -10 5 0 7 5 4 10 -3 6 -8 10 -11 10 -2 0
-4 -4 -4 -10z"/>
<path d="M3375 1600 c-3 -5 -1 -10 4 -10 6 0 11 5 11 10 0 6 -2 10 -4 10 -3 0
-8 -4 -11 -10z"/>
<path d="M3448 1603 c7 -3 16 -2 19 1 4 3 -2 6 -13 5 -11 0 -14 -3 -6 -6z"/>
<path d="M3565 1579 c-9 -14 -2 -20 14 -10 8 6 9 11 3 15 -6 3 -14 1 -17 -5z"/>
<path d="M3340 1560 c-13 -8 -12 -10 3 -10 9 0 17 5 17 10 0 12 -1 12 -20 0z"/>
<path d="M3284 1545 c3 -9 6 -24 7 -33 0 -11 2 -12 6 -4 2 6 8 10 12 8 4 -3 7
5 6 17 -1 12 -10 24 -20 26 -13 2 -16 -1 -11 -14z"/>
<path d="M3391 1544 c0 -11 3 -14 6 -6 3 7 2 16 -1 19 -3 4 -6 -2 -5 -13z"/>
<path d="M3520 1529 c0 -11 4 -18 10 -14 5 3 7 12 3 20 -7 21 -13 19 -13 -6z"/>
<path d="M3330 1508 c0 -16 20 -17 51 -3 l34 15 -42 -3 c-24 -1 -43 -5 -43 -9z"/>
<path d="M3180 1479 c0 -5 5 -7 10 -4 6 3 10 8 10 11 0 2 -4 4 -10 4 -5 0 -10
-5 -10 -11z"/>
<path d="M3365 1480 c3 -5 10 -10 16 -10 5 0 9 5 9 10 0 6 -7 10 -16 10 -8 0
-12 -4 -9 -10z"/>
<path d="M3040 1466 c0 -2 6 -9 13 -15 10 -8 14 -7 14 4 0 8 -6 15 -14 15 -7
0 -13 -2 -13 -4z"/>
<path d="M3356 1445 c-9 -25 -7 -53 4 -60 6 -4 8 7 4 27 -4 25 -3 29 5 18 13
-18 15 -1 2 18 -7 11 -10 10 -15 -3z"/>
<path d="M3450 1452 c0 -5 7 -13 16 -16 10 -4 14 -1 12 6 -5 15 -28 23 -28 10z"/>
<path d="M3211 1420 c-1 -18 -4 -21 -10 -12 -7 11 -10 10 -15 -3 -9 -25 -8
-27 12 -16 13 7 24 4 42 -10 l25 -19 -40 5 c-31 3 -36 2 -22 -6 10 -6 28 -9
40 -7 29 4 29 40 0 53 -12 5 -24 16 -27 25 -2 8 -4 4 -5 -10z"/>
<path d="M3125 1400 c-3 -5 1 -10 9 -10 9 0 16 5 16 10 0 6 -4 10 -9 10 -6 0
-13 -4 -16 -10z"/>
<path d="M3413 1383 c1 -19 6 -28 11 -23 6 6 5 18 -2 32 -10 22 -10 21 -9 -9z"/>
<path d="M3270 1343 c0 -19 21 -27 33 -13 9 10 9 11 -2 5 -8 -4 -17 -2 -22 6
-6 9 -9 10 -9 2z"/>
<path d="M3232 1324 c1 -9 9 -19 16 -22 9 -3 13 2 10 14 -1 9 -9 19 -16 22 -9
3 -13 -2 -10 -14z"/>
<path d="M3421 1332 c0 -7 -5 -10 -11 -7 -13 8 0 -28 14 -37 12 -8 26 -1 26
13 0 6 -4 8 -9 4 -5 -3 -12 5 -14 17 -2 13 -5 17 -6 10z"/>
<path d="M3486 1324 c-9 -23 -7 -26 6 -18 8 5 9 2 5 -9 -4 -11 -1 -17 8 -17 8
0 12 6 9 14 -3 8 2 16 12 18 14 2 13 5 -8 15 -22 10 -27 9 -32 -3z"/>
<path d="M3578 1333 c6 -2 18 -2 25 0 6 3 1 5 -13 5 -14 0 -19 -2 -12 -5z"/>
<path d="M3328 1323 c-24 -6 -23 -18 2 -20 11 -1 20 4 20 13 0 8 -1 13 -2 13
-2 -1 -11 -3 -20 -6z"/>
<path d="M3375 1291 c-14 -6 -20 -19 -22 -54 -2 -25 1 -48 7 -52 6 -4 8 6 6
25 -2 19 3 37 13 47 15 16 15 16 -1 10 -10 -3 -18 -2 -18 3 0 6 6 10 14 10 8
0 18 5 21 10 7 11 7 11 -20 1z"/>
<path d="M3530 1291 c0 -5 5 -13 10 -16 6 -3 10 -2 10 4 0 5 -4 13 -10 16 -5
3 -10 2 -10 -4z"/>
<path d="M3218 1283 c7 -3 16 -2 19 1 4 3 -2 6 -13 5 -11 0 -14 -3 -6 -6z"/>
<path d="M3476 1245 c4 -20 3 -26 -4 -17 -7 11 -10 9 -15 -7 -6 -26 14 -23 30
4 7 11 12 14 13 8 0 -25 15 -13 17 14 0 15 -2 21 -7 14 -9 -16 -21 -16 -32 1
-5 8 -6 2 -2 -17z"/>
<path d="M3260 1240 c-12 -8 -12 -10 5 -10 14 0 16 -3 7 -8 -19 -13 -4 -41 19
-35 10 3 19 0 19 -6 0 -6 5 -11 11 -11 6 0 9 8 6 19 -2 10 0 26 5 35 7 12 5
16 -6 16 -8 0 -18 -4 -21 -10 -3 -5 -1 -10 5 -10 6 0 8 -4 5 -10 -10 -17 -21
-11 -31 15 -7 19 -12 23 -24 15z"/>
<path d="M3381 1234 c0 -11 3 -14 6 -6 3 7 2 16 -1 19 -3 4 -6 -2 -5 -13z"/>
<path d="M3410 1246 c0 -2 7 -7 16 -10 8 -3 12 -2 9 4 -6 10 -25 14 -25 6z"/>
<path d="M3411 1200 c0 -14 4 -32 9 -40 8 -12 10 -12 9 5 0 11 -4 29 -9 40 -8
18 -9 18 -9 -5z"/>
<path d="M3510 1189 c0 -5 5 -7 10 -4 6 3 10 8 10 11 0 2 -4 4 -10 4 -5 0 -10
-5 -10 -11z"/>
<path d="M3450 1148 c0 -23 17 -31 24 -12 4 9 4 19 1 22 -3 3 -5 -1 -5 -9 0
-11 -2 -11 -10 1 -8 13 -10 13 -10 -2z"/>
<path d="M3420 1120 c-12 -7 -10 -9 7 -7 12 0 19 5 17 9 -6 10 -6 10 -24 -2z"/>
<path d="M3515 1089 c-11 -16 -1 -19 13 -3 7 8 8 14 3 14 -5 0 -13 -5 -16 -11z"/>
<path d="M3574 1088 c3 -15 26 -23 26 -8 0 6 -4 9 -9 6 -5 -4 -12 -1 -14 4 -3
6 -4 5 -3 -2z"/>
<path d="M3440 1080 c0 -5 5 -10 10 -10 6 0 10 5 10 10 0 6 -4 10 -10 10 -5 0
-10 -4 -10 -10z"/>
<path d="M3606 1055 c-3 -9 0 -15 9 -15 9 0 12 6 9 15 -4 8 -7 15 -9 15 -2 0
-5 -7 -9 -15z"/>
<path d="M3502 989 c-8 -12 -11 -24 -7 -27 3 -4 10 0 15 8 8 13 10 13 10 1 0
-8 2 -12 5 -9 3 3 2 15 -2 26 l-8 22 -13 -21z"/>
<path d="M3456 981 c-4 -5 -2 -12 3 -15 5 -4 12 -2 15 3 4 5 2 12 -3 15 -5 4
-12 2 -15 -3z"/>
<path d="M3796 848 c3 -4 9 -8 15 -8 5 0 9 4 9 8 0 5 -7 9 -15 9 -8 0 -12 -4
-9 -9z"/>
<path d="M245 770 c11 -5 27 -9 35 -9 13 -1 13 0 0 9 -8 5 -24 9 -35 9 l-20 0
20 -9z"/>
<path d="M308 773 c6 -2 18 -2 25 0 6 3 1 5 -13 5 -14 0 -19 -2 -12 -5z"/>
<path d="M3685 770 c3 -5 8 -10 11 -10 2 0 4 5 4 10 0 6 -5 10 -11 10 -5 0 -7
-4 -4 -10z"/>
<path d="M228 753 c7 -3 16 -2 19 1 4 3 -2 6 -13 5 -11 0 -14 -3 -6 -6z"/>
<path d="M3690 740 c8 -5 22 -9 30 -9 10 0 8 3 -5 9 -27 12 -43 12 -25 0z"/>
<path d="M3811 734 c0 -11 3 -14 6 -6 3 7 2 16 -1 19 -3 4 -6 -2 -5 -13z"/>
<path d="M3625 696 c-22 -16 -11 -41 14 -30 9 4 27 6 41 6 14 0 18 2 10 5 -8
3 -22 12 -31 19 -13 12 -18 12 -34 0z"/>
<path d="M3785 690 c4 -6 11 -8 16 -5 14 9 11 15 -7 15 -8 0 -12 -5 -9 -10z"/>
<path d="M3706 642 c-2 -4 -1 -14 3 -21 6 -10 10 -9 14 3 6 16 -8 32 -17 18z"/>
<path d="M3748 610 c-7 -24 -3 -38 8 -28 3 4 4 17 2 30 l-3 23 -7 -25z"/>
<path d="M3660 611 c0 -10 19 -25 25 -20 1 2 -3 10 -11 17 -8 7 -14 8 -14 3z"/>
<path d="M3952 474 c-1 -13 0 -24 2 -24 7 0 14 40 7 44 -4 3 -8 -6 -9 -20z"/>
<path d="M3960 434 c0 -5 -10 -15 -21 -23 -16 -10 -23 -10 -29 -1 -5 8 -9 5
-13 -9 -3 -12 -2 -21 2 -21 14 0 61 25 61 33 0 5 10 5 23 1 12 -3 20 -5 17 -2
-28 22 -40 29 -40 22z"/>
<path d="M539 348 c-6 -15 -5 -68 2 -68 5 0 9 5 9 11 0 5 4 8 9 4 5 -3 12 -1
16 5 4 6 12 7 18 3 9 -5 9 -3 0 8 -6 8 -11 18 -11 24 0 5 -5 11 -10 13 -6 2
-9 -3 -8 -10 0 -7 -3 -13 -9 -13 -5 0 -9 6 -9 13 2 10 -4 17 -7 10z"/>
<path d="M608 333 c7 -3 16 -2 19 1 4 3 -2 6 -13 5 -11 0 -14 -3 -6 -6z"/>
<path d="M40 152 c0 -6 -9 -8 -20 -5 -12 3 -20 0 -20 -7 0 -7 7 -10 15 -6 10
3 15 -1 15 -12 0 -15 2 -15 10 -2 7 11 9 5 6 -22 -2 -21 -7 -42 -11 -48 -9
-15 2 -12 25 7 11 10 20 24 19 33 0 10 -2 11 -6 3 -10 -26 -22 -12 -16 21 3
19 1 36 -6 40 -6 4 -11 3 -11 -2z"/>
<path d="M107 109 c-9 -6 -17 -17 -17 -26 0 -14 4 -12 21 6 24 25 22 34 -4 20z"/>
<path d="M13 88 c3 -9 0 -21 -6 -27 -9 -9 -8 -11 6 -6 19 8 23 30 5 41 -7 5
-9 2 -5 -8z"/>
</g>
</svg>
